<?xml version="1.0" encoding="utf-8"?>
<!-- Generator: Adobe Illustrator 22.0.0, SVG Export Plug-In . SVG Version: 6.00 Build 0)  -->
<svg version="1.1" id="双峰插云_1_" xmlns="http://www.w3.org/2000/svg" xmlns:xlink="http://www.w3.org/1999/xlink" x="0px"
	 y="0px" viewBox="0 0 1024 1024" style="enable-background:new 0 0 1024 1024;" xml:space="preserve">
<style type="text/css">
	.st0{fill:#EEEBE6;}
	.st1{fill:none;}
	.st2{clip-path:url(#SVGID_2_);}
	.st3{fill:url(#SVGID_3_);}
	.st4{fill:url(#SVGID_4_);}
	.st5{fill:url(#SVGID_5_);}
	.st6{fill:url(#SVGID_6_);}
	.st7{fill:url(#SVGID_7_);}
	.st8{fill:url(#SVGID_8_);}
	.st9{fill:url(#SVGID_9_);}
	.st10{fill:url(#SVGID_10_);}
	.st11{fill:url(#SVGID_11_);}
	.st12{fill:none;stroke:url(#SVGID_12_);stroke-miterlimit:10;}
	.st13{opacity:0.5;}
	.st14{fill:#C5D1D6;}
	.st15{fill:none;stroke:#C5D1D6;stroke-miterlimit:10;}
	.st16{opacity:0.9;fill:url(#SVGID_13_);}
	.st17{opacity:0.5;fill:url(#SVGID_14_);}
	.st18{fill:url(#SVGID_15_);}
	.st19{opacity:0.5;fill:url(#SVGID_16_);}
	.st20{opacity:0.1;}
	.st21{opacity:0.9;fill:url(#SVGID_17_);}
	.st22{opacity:0.5;fill:url(#SVGID_18_);}
	.st23{fill:url(#SVGID_19_);}
	.st24{opacity:0.5;fill:url(#SVGID_20_);}
	.st25{opacity:0.5;fill:url(#SVGID_21_);}
	.st26{opacity:0.5;fill:url(#SVGID_22_);}
	.st27{opacity:0.86;fill:url(#SVGID_23_);}
	.st28{fill:#99000F;}
</style>
<path class="st0" d="M0,0v1024h1024V0H0z M511.9,980.2c-258.7,0-468.4-209.7-468.4-468.4S253.3,43.5,511.9,43.5
	s468.4,209.7,468.4,468.4S770.6,980.2,511.9,980.2z"/>
<circle class="st1" cx="512" cy="512" r="468.4"/>
<g>
	<defs>
		<circle id="SVGID_1_" cx="512" cy="512" r="468.4"/>
	</defs>
	<clipPath id="SVGID_2_">
		<use xlink:href="#SVGID_1_"  style="overflow:visible;"/>
	</clipPath>
	<g class="st2">
		<g>
			
				<linearGradient id="SVGID_3_" gradientUnits="userSpaceOnUse" x1="-35.2554" y1="414.4572" x2="-35.2554" y2="399.4437" gradientTransform="matrix(-1 0 0 1 768.1654 0)">
				<stop  offset="0" style="stop-color:#FFCDD6"/>
				<stop  offset="0.3975" style="stop-color:#6D8DAF"/>
				<stop  offset="1" style="stop-color:#253A59"/>
			</linearGradient>
			<path class="st3" d="M826.4,405.9c0,0-21.1,1.5-21.8,8.5c0,0-9.4-13-24.1-14.3c0,0,14.3-4.1,24.2,7.1
				C804.7,407.3,816.8,401.2,826.4,405.9z"/>
			
				<linearGradient id="SVGID_4_" gradientUnits="userSpaceOnUse" x1="47.7205" y1="376.8818" x2="47.7205" y2="365.4684" gradientTransform="matrix(-1 0 0 1 768.1654 0)">
				<stop  offset="0" style="stop-color:#FFCDD6"/>
				<stop  offset="0.3975" style="stop-color:#6D8DAF"/>
				<stop  offset="1" style="stop-color:#253A59"/>
			</linearGradient>
			<path class="st4" d="M737.9,370.4c0,0-16.1,1.1-16.5,6.5c0,0-7.2-9.9-18.3-10.9c0,0,10.9-3.1,18.4,5.4
				C721.4,371.4,730.6,366.8,737.9,370.4z"/>
			
				<linearGradient id="SVGID_5_" gradientUnits="userSpaceOnUse" x1="88.4126" y1="401.9633" x2="88.4126" y2="396.2549" gradientTransform="matrix(-1 0 0 1 768.1654 0)">
				<stop  offset="0" style="stop-color:#FFCDD6"/>
				<stop  offset="0.3975" style="stop-color:#6D8DAF"/>
				<stop  offset="1" style="stop-color:#253A59"/>
			</linearGradient>
			<path class="st5" d="M688.5,398.7c0,0-8,0.6-8.3,3.2c0,0-3.6-5-9.2-5.4c0,0,5.4-1.5,9.2,2.7C680.2,399.2,684.8,396.9,688.5,398.7
				z"/>
			
				<linearGradient id="SVGID_6_" gradientUnits="userSpaceOnUse" x1="254.201" y1="452.7319" x2="254.201" y2="445.4651" gradientTransform="matrix(-1 0 0 1 768.1654 0)">
				<stop  offset="0" style="stop-color:#FFCDD6"/>
				<stop  offset="0.3975" style="stop-color:#6D8DAF"/>
				<stop  offset="1" style="stop-color:#253A59"/>
			</linearGradient>
			<path class="st6" d="M525.1,448.6c0,0-10.2,0.7-10.5,4.1c0,0-4.6-6.3-11.7-6.9c0,0,6.9-2,11.7,3.4
				C514.6,449.3,520.4,446.3,525.1,448.6z"/>
			
				<linearGradient id="SVGID_7_" gradientUnits="userSpaceOnUse" x1="155.1202" y1="449.0985" x2="155.1202" y2="441.8318" gradientTransform="matrix(-1 0 0 1 768.1654 0)">
				<stop  offset="0" style="stop-color:#FFCDD6"/>
				<stop  offset="0.3975" style="stop-color:#6D8DAF"/>
				<stop  offset="1" style="stop-color:#253A59"/>
			</linearGradient>
			<path class="st7" d="M624.1,445c0,0-10.2,0.7-10.5,4.1c0,0-4.6-6.3-11.7-6.9c0,0,6.9-2,11.7,3.4
				C613.7,445.6,619.5,442.7,624.1,445z"/>
		</g>
		<g>
			<g>
				<g>
					<g>
						
							<linearGradient id="SVGID_8_" gradientUnits="userSpaceOnUse" x1="711.8983" y1="967.0679" x2="748.1744" y2="967.0679" gradientTransform="matrix(0.9998 2.140446e-02 -2.140446e-02 0.9998 -5.876 -89.1797)">
							<stop  offset="0" style="stop-color:#FFCDD6"/>
							<stop  offset="0.3975" style="stop-color:#6D8DAF"/>
							<stop  offset="1" style="stop-color:#253A59"/>
						</linearGradient>
						<path class="st8" d="M685.8,900.8c0,0-5.9-15.3,15.1-15.4c21-0.1,20.7,13.2,20.2,16.2L685.8,900.8z"/>
						
							<linearGradient id="SVGID_9_" gradientUnits="userSpaceOnUse" x1="711.3071" y1="968.0986" x2="724.6484" y2="968.0986" gradientTransform="matrix(0.9998 2.140446e-02 -2.140446e-02 0.9998 -5.876 -89.1797)">
							<stop  offset="0" style="stop-color:#FFCDD6"/>
							<stop  offset="0.3975" style="stop-color:#6D8DAF"/>
							<stop  offset="1" style="stop-color:#253A59"/>
						</linearGradient>
						<path class="st9" d="M684.4,900.8c0,0-0.6-12.6,7.5-13.5c7.6-0.8,5.7,13.7,5.7,13.7L684.4,900.8z"/>
					</g>
					<g>
						<path d="M667.9,894.1L667.9,894.1C667.9,894.1,667.9,894.1,667.9,894.1C667.9,894.1,667.9,894.1,667.9,894.1z"/>
						<linearGradient id="SVGID_10_" gradientUnits="userSpaceOnUse" x1="665.9603" y1="898.6125" x2="665.9603" y2="866.0734">
							<stop  offset="0" style="stop-color:#FFCDD6"/>
							<stop  offset="0.3975" style="stop-color:#6D8DAF"/>
							<stop  offset="1" style="stop-color:#253A59"/>
						</linearGradient>
						<path class="st10" d="M666.6,894.6c0-0.3-0.1-0.6,0-0.8c0.1-0.2,0.1-0.6,0.2-0.8c0,0,0-0.1,0-0.1c0,0-0.1-0.1-0.1-0.1
							c0.2-0.3,0.2-0.7,0.1-1.1c0-0.4,0-0.8,0-1.2c0.1,0,0-0.3,0-0.3c0-0.3,0-0.7,0-1c0-0.1,0.1-0.2,0.1-0.3c-0.2-0.9,0-1.7,0-2.6
							c0-0.6,0-1.1,0-1.7c0.1-0.9,0-1.9,0.6-2.8c0,0.2,0.4-0.6,0.6-1.2c0.1,0,0.1,0,0.2,0c0,0.1,2.2-2.4,2.2-2.4
							c0.1-0.2,0.3-0.4,0.5-0.7c0.1,0,0.4-0.8,0.3-0.9c0.6-0.2,0.9-1.3,0.8-1.4c-0.2-0.2-1.1-0.3-1.2-0.1c-0.2,0.4-0.5,0.5-0.8,0.6
							c-0.5,0.1-1,0.3-1.5,0c-0.6-0.3-1.2-0.7-1.7-1c-0.1-0.1-0.2-0.1-0.2-0.2c-0.2-0.6-0.7-1.1-0.7-1.9c0-0.1,0-0.2-0.1-0.3
							c-0.1-0.3,0.1-0.6,0.4-0.6c0.8,0,1-0.3,1-1.1c0-0.2,0.1-0.5,0.1-0.7c0,0,0.1-0.2,0-0.2c-0.4-0.3-0.2-0.4,0.1-0.6
							c0.6-0.4,1.1-0.8,1.7-1.2c-0.1-0.4-0.8-0.4-1.1-0.5c-0.3-0.2-3.2-1-4.2-1.3c-0.9-0.3-1,0.1-1.2,0.6c-0.1,0.4-0.3,0.7-0.5,1.1
							c-0.3,0.7-0.5,1.4-0.8,2.2c-0.1,0.4-0.3,0.8-0.4,1.2c0,0.2,0,0.4,0,0.5c0.1,0.2,0.4,0.2,0.6,0.1c0.3-0.1,0.6-0.2,1.1-0.3
							c-0.1,0.3-0.2,0.5-0.3,0.6c-0.3,0.4-0.6,0.8-0.9,1.3c-0.2,0.3-0.3,0.5-0.4,0.8c-0.2,0.5-0.5,0.9-0.7,1.4
							c-0.2,0.5-0.2,1-0.3,1.6c-0.2,1-0.4,1.9-0.5,2.9c0,0.3,0,0.6,0.1,0.9c0.2,0.6,0.4,1.1,0.5,1.7c0.1,0.3,0,0.6-0.1,1
							c-0.1,0.9-0.2,1.9-0.2,2.8c0,0.2,0,0.4,0,0.5c0,0.2-0.1,0.3-0.2,0.5c-0.1,0.2-0.2,0.3,0,0.4c0.1,0,0.1,0.1,0.1,0.2
							c0,0.4,0,0.8,0.1,1.2c0.2,0,0.5,0,0.7-0.1c0.4,1.3,0.4,2.6,0.2,3.8c0.1,0.1,0.2,0.2,0.2,0.3c0,0.8,0,1.6-0.1,2.5
							c0,0.1-0.8,2.8-0.8,2.8l5.7-0.4C666,898.2,666.3,894.5,666.6,894.6z"/>
					</g>
					<linearGradient id="SVGID_11_" gradientUnits="userSpaceOnUse" x1="628.1168" y1="901.1742" x2="740.7834" y2="901.1742">
						<stop  offset="0" style="stop-color:#FFCDD6"/>
						<stop  offset="0.3975" style="stop-color:#6D8DAF"/>
						<stop  offset="1" style="stop-color:#253A59"/>
					</linearGradient>
					<path class="st11" d="M628.1,892.2c0,0,14,17,32,18h54c0,0,13,0.3,26.7-9C740.8,901.2,650.5,899.5,628.1,892.2z"/>
					
						<linearGradient id="SVGID_12_" gradientUnits="userSpaceOnUse" x1="727.9892" y1="735.8931" x2="779.9882" y2="735.8931" gradientTransform="matrix(-0.3076 0.9515 -0.9515 -0.3076 1589.1189 399.2807)">
						<stop  offset="0" style="stop-color:#FFCDD6"/>
						<stop  offset="0.3975" style="stop-color:#6D8DAF"/>
						<stop  offset="1" style="stop-color:#253A59"/>
					</linearGradient>
					<line class="st12" x1="677.6" y1="870" x2="636.3" y2="910.8"/>
				</g>
				<g class="st13">
					<g>
						<path class="st14" d="M685.8,914.7c0,0-5.9,7.4,15.1,7.4c21,0,20.7-6.4,20.2-7.8L685.8,914.7z"/>
						<path class="st14" d="M684.4,914.7c0,0-0.6,6.1,7.5,6.5c7.6,0.4,5.7-6.7,5.7-6.7L684.4,914.7z"/>
					</g>
					<g>
						<path class="st14" d="M667.9,918L667.9,918C667.9,918,667.9,918,667.9,918C667.9,918,667.9,918,667.9,918z"/>
						<path class="st14" d="M666.6,917.7c0,0.1-0.1,0.3,0,0.4c0.1,0.1,0.1,0.3,0.2,0.4c0,0,0,0,0,0c0,0-0.1,0.1-0.1,0.1
							c0.2,0.2,0.2,0.3,0.1,0.5c0,0.2,0,0.4,0,0.6c0.1,0,0,0.1,0,0.2c0,0.2,0,0.3,0,0.5c0,0,0.1,0.1,0.1,0.1c-0.2,0.4,0,0.8,0,1.2
							c0,0.3,0,0.5,0,0.8c0.1,0.5,0,0.9,0.6,1.4c0-0.1,0.4,0.3,0.6,0.6c0.1,0,0.1,0,0.2,0c0,0,2.2,1.1,2.2,1.1
							c0.1,0.1,0.3,0.2,0.5,0.3c0.1,0,0.4,0.4,0.3,0.4c0.6,0.1,0.9,0.6,0.8,0.7c-0.2,0.1-1.1,0.1-1.2,0c-0.2-0.2-0.5-0.2-0.8-0.3
							c-0.5,0-1-0.2-1.5,0c-0.6,0.2-1.2,0.3-1.7,0.5c-0.1,0-0.2,0.1-0.2,0.1c-0.2,0.3-0.7,0.6-0.7,0.9c0,0,0,0.1-0.1,0.1
							c-0.1,0.2,0.1,0.3,0.4,0.3c0.8,0,1,0.2,1,0.5c0,0.1,0.1,0.2,0.1,0.3c0,0,0.1,0.1,0,0.1c-0.4,0.2-0.2,0.2,0.1,0.3
							c0.6,0.2,1.1,0.4,1.7,0.6c-0.1,0.2-0.8,0.2-1.1,0.3c-0.3,0.1-3.2,0.5-4.2,0.6c-0.9,0.1-1,0-1.2-0.3c-0.1-0.2-0.3-0.3-0.5-0.5
							c-0.3-0.3-0.5-0.7-0.8-1c-0.1-0.2-0.3-0.4-0.4-0.6c0-0.1,0-0.2,0-0.2c0.1-0.1,0.4-0.1,0.6-0.1c0.3,0,0.6,0.1,1.1,0.2
							c-0.1-0.1-0.2-0.2-0.3-0.3c-0.3-0.2-0.6-0.4-0.9-0.6c-0.2-0.1-0.3-0.3-0.4-0.4c-0.2-0.2-0.5-0.4-0.7-0.7
							c-0.2-0.2-0.2-0.5-0.3-0.8c-0.2-0.5-0.4-0.9-0.5-1.4c0-0.1,0-0.3,0.1-0.4c0.2-0.3,0.4-0.5,0.5-0.8c0.1-0.1,0-0.3-0.1-0.5
							c-0.1-0.5-0.2-0.9-0.2-1.4c0-0.1,0-0.2,0-0.3c0-0.1-0.1-0.2-0.2-0.2c-0.1-0.1-0.2-0.1,0-0.2c0.1,0,0.1-0.1,0.1-0.1
							c0-0.2,0-0.4,0.1-0.6c0.2,0,0.5,0,0.7,0c0.4-0.6,0.4-1.2,0.2-1.8c0.1-0.1,0.2-0.1,0.2-0.2c0-0.4,0-0.8-0.1-1.2
							c0,0-0.8-1.3-0.8-1.3l5.7,0.2C666,916,666.3,917.7,666.6,917.7z"/>
					</g>
					<path class="st14" d="M628.1,918.9c0,0,14-8.2,32-8.7h54c0,0,13-0.2,26.7,4.4C740.8,914.5,650.5,915.3,628.1,918.9z"/>
					<line class="st15" x1="677.6" y1="929.6" x2="636.3" y2="910.8"/>
				</g>
			</g>
			<g>
				<g>
					<linearGradient id="SVGID_13_" gradientUnits="userSpaceOnUse" x1="700.5951" y1="712.9508" x2="700.5951" y2="485.876">
						<stop  offset="0" style="stop-color:#FFCDD6"/>
						<stop  offset="0.3975" style="stop-color:#6D8DAF"/>
						<stop  offset="1" style="stop-color:#253A59"/>
					</linearGradient>
					<path class="st16" d="M333.7,692.2c0,0,29.1-43.8,125-68s125.7-138.3,182.9-138.3c40.5,0,71.4,55.4,152.5,120.8
						c68.8,55.5,56,5.6,127,0c44.9-3.6,113.7,58.7,146.5,59.5l-16.4,46.8l-716.5-2.3L333.7,692.2z"/>
					<linearGradient id="SVGID_14_" gradientUnits="userSpaceOnUse" x1="183.2703" y1="701.3383" x2="183.2703" y2="582.1736">
						<stop  offset="0" style="stop-color:#FFCDD6"/>
						<stop  offset="0.3975" style="stop-color:#6D8DAF"/>
						<stop  offset="1" style="stop-color:#253A59"/>
					</linearGradient>
					<path class="st17" d="M-91.1,663.9c0,0-24.5-15,86.5-21s152.8-62,187.8-60.7s61.6,37.3,131.6,57.2s101,29.9,145,30.9v31h-551
						V663.9z"/>
					<linearGradient id="SVGID_15_" gradientUnits="userSpaceOnUse" x1="491.8883" y1="712.3839" x2="491.8883" y2="465.3053">
						<stop  offset="0" style="stop-color:#FFCDD6"/>
						<stop  offset="0.3975" style="stop-color:#6D8DAF"/>
						<stop  offset="1" style="stop-color:#253A59"/>
					</linearGradient>
					<path class="st18" d="M-28.1,710.7c0,0-7.1-19.6,80-20.5c185.4-2,154.9-81.5,215.8-83.5s54.4-120.2,142-139.8
						c91-20.4,153.3,169.4,238.3,191.4s364.1,34,364.1,34v20.2L-28.1,710.7z"/>
					<linearGradient id="SVGID_16_" gradientUnits="userSpaceOnUse" x1="459.3113" y1="712.3839" x2="459.3113" y2="644.7203">
						<stop  offset="0" style="stop-color:#FFCDD6"/>
						<stop  offset="0.3975" style="stop-color:#6D8DAF"/>
						<stop  offset="1" style="stop-color:#253A59"/>
					</linearGradient>
					<path class="st19" d="M-89.7,693.6c0,0-39.7-7.5,140.2-10.5c37.2-0.6,45.8-11.6,74.3-13.9c35.2-2.8,42,16.5,101.2,13.4
						c82-4.3,123.3-51.4,165.5-34.1C540.7,710,526,657.2,573,652.2c18.1-1.9,64.8,39.3,88,41.3c43.6,3.8,70-29.3,119-28.3
						c73.6,1.5,67.6,38.2,232,31.7v15.5H-89.7V693.6z"/>
				</g>
				<g class="st20">
					
						<linearGradient id="SVGID_17_" gradientUnits="userSpaceOnUse" x1="700.5951" y1="340.8879" x2="700.5951" y2="0.5197" gradientTransform="matrix(1 0 0 -0.3724 0 839.9114)">
						<stop  offset="0" style="stop-color:#FFCDD6"/>
						<stop  offset="0.3975" style="stop-color:#6D8DAF"/>
						<stop  offset="1" style="stop-color:#253A59"/>
					</linearGradient>
					<path class="st21" d="M333.7,724.5c0,0,29.1,24.4,125,38s125.7,77.2,182.9,77.2c40.5,0,71.4-30.9,152.5-67.4
						c68.8-31,56-3.2,127,0c44.9,2,113.7-32.7,146.5-33.2l-16.4-26.1l-716.5,1.3L333.7,724.5z"/>
					
						<linearGradient id="SVGID_18_" gradientUnits="userSpaceOnUse" x1="183.2703" y1="323.4816" x2="183.2703" y2="144.8627" gradientTransform="matrix(1 0 0 -0.3724 0 839.9114)">
						<stop  offset="0" style="stop-color:#FFCDD6"/>
						<stop  offset="0.3975" style="stop-color:#6D8DAF"/>
						<stop  offset="1" style="stop-color:#253A59"/>
					</linearGradient>
					<path class="st22" d="M-91.1,740.4c0,0-24.5,8.4,86.5,11.7c111,3.3,152.8,34.6,187.8,33.9c35-0.7,61.6-20.8,131.6-31.9
						c70-11.1,101-16.7,145-17.3v-17.3h-551V740.4z"/>
					
						<linearGradient id="SVGID_19_" gradientUnits="userSpaceOnUse" x1="491.8883" y1="340.0382" x2="491.8883" y2="-30.3142" gradientTransform="matrix(1 0 0 -0.3724 0 839.9114)">
						<stop  offset="0" style="stop-color:#FFCDD6"/>
						<stop  offset="0.3975" style="stop-color:#6D8DAF"/>
						<stop  offset="1" style="stop-color:#253A59"/>
					</linearGradient>
					<path class="st23" d="M-28.1,714.2c0,0-7.1,11,80,11.5c185.4,1.1,154.9,45.5,215.8,46.6s54.4,67.1,142,78.1
						c91,11.4,153.3-94.6,238.3-106.9s364.1-19,364.1-19v-11.2L-28.1,714.2z"/>
					
						<linearGradient id="SVGID_20_" gradientUnits="userSpaceOnUse" x1="459.3113" y1="340.0382" x2="459.3113" y2="238.6155" gradientTransform="matrix(1 0 0 -0.3724 0 839.9114)">
						<stop  offset="0" style="stop-color:#FFCDD6"/>
						<stop  offset="0.3975" style="stop-color:#6D8DAF"/>
						<stop  offset="1" style="stop-color:#253A59"/>
					</linearGradient>
					<path class="st24" d="M-89.7,723.7c0,0-39.7,4.2,140.2,5.9c37.2,0.3,45.8,6.5,74.3,7.8c35.2,1.6,42-9.2,101.2-7.5
						c82,2.4,123.3,28.7,165.5,19c149.3-34.3,134.5-4.8,181.5-2c18.1,1.1,64.8-21.9,88-23.1c43.6-2.1,70,16.4,119,15.8
						c73.6-0.8,67.6-21.3,232-17.7v-8.7H-89.7V723.7z"/>
				</g>
				<linearGradient id="SVGID_21_" gradientUnits="userSpaceOnUse" x1="327.2079" y1="497.9098" x2="327.2079" y2="530.9278">
					<stop  offset="0" style="stop-color:#FFCDD6"/>
					<stop  offset="0.3975" style="stop-color:#6D8DAF"/>
					<stop  offset="1" style="stop-color:#253A59"/>
				</linearGradient>
				<path class="st25" d="M378,510.3c-2.5,0-4.9,0.5-6.6,1.4c-1.1-3.6-6.6-6.4-13.2-6.4c-2.4,0-4.7,0.4-6.7,1
					c-2.1-4.8-10.9-8.5-21.3-8.5c-9.6,0-17.8,3.1-20.7,7.3c-5.2,0.6-9.5,2.5-11.8,5.1c-2.2-1.4-5.3-2.3-8.8-2.3
					c-5.7,0-10.5,2.3-11.6,5.4c-1.1-0.4-2.3-0.6-3.6-0.6c-4,0-7.2,1.8-7.2,4.1s3.2,4.1,7.2,4.1c2.5,0,4.7-0.7,6-1.9
					c2.2,1.6,5.5,2.6,9.3,2.6c3.6,0,6.7-0.9,8.9-2.3c0.1,0.2,0.3,0.3,0.5,0.5c-0.6,0.8-0.9,1.7-0.9,2.6c0,4.6,8,8.3,18,8.3
					c4.5,0,8.7-0.8,11.8-2.1c4.7,1.1,10.4,1.8,16.4,1.8c15,0,27.5-4,30.2-9.4c1.3,0.4,2.8,0.6,4.4,0.6c5.5,0,10-2.6,10-5.8
					C388,512.9,383.6,510.3,378,510.3z"/>
				
					<linearGradient id="SVGID_22_" gradientUnits="userSpaceOnUse" x1="847.0459" y1="514.4188" x2="847.0459" y2="540.7869" gradientTransform="matrix(-1 0 0 1 1446.7826 0)">
					<stop  offset="0" style="stop-color:#FFCDD6"/>
					<stop  offset="0.3975" style="stop-color:#6D8DAF"/>
					<stop  offset="1" style="stop-color:#253A59"/>
				</linearGradient>
				<path class="st26" d="M561.6,524.3c1.9,0,3.7,0.4,5,1.2c0.8-2.9,4.9-5.1,9.9-5.1c1.8,0,3.5,0.3,5,0.8c1.6-3.9,8.1-6.8,16-6.8
					c7.2,0,13.4,2.5,15.5,5.9c3.9,0.5,7.1,2,8.9,4.1c1.6-1.1,4-1.8,6.6-1.8c4.3,0,7.8,1.8,8.7,4.3c0.8-0.3,1.7-0.5,2.7-0.5
					c3,0,5.4,1.5,5.4,3.3c0,1.8-2.4,3.3-5.4,3.3c-1.9,0-3.5-0.6-4.5-1.5c-1.6,1.2-4.1,2-7,2c-2.7,0-5.1-0.7-6.7-1.9
					c-0.1,0.1-0.2,0.3-0.4,0.4c0.4,0.7,0.7,1.4,0.7,2.1c0,3.7-6,6.6-13.5,6.6c-3.4,0-6.5-0.6-8.9-1.7c-3.6,0.9-7.8,1.4-12.3,1.4
					c-11.2,0-20.6-3.2-22.6-7.5c-1,0.3-2.1,0.5-3.3,0.5c-4.2,0-7.5-2.1-7.5-4.6C554.1,526.4,557.5,524.3,561.6,524.3z"/>
				<linearGradient id="SVGID_23_" gradientUnits="userSpaceOnUse" x1="389.074" y1="513.3825" x2="389.074" y2="539.7507">
					<stop  offset="0" style="stop-color:#FFCDD6"/>
					<stop  offset="0.3975" style="stop-color:#6D8DAF"/>
					<stop  offset="1" style="stop-color:#253A59"/>
				</linearGradient>
				<path class="st27" d="M422.3,523.3c-1.7,0-3.2,0.4-4.3,1.2c-0.7-2.9-4.3-5.1-8.6-5.1c-1.6,0-3.1,0.3-4.4,0.8
					c-1.4-3.9-7.1-6.8-13.9-6.8c-6.3,0-11.6,2.5-13.5,5.9c-3.4,0.5-6.2,2-7.7,4.1c-1.4-1.1-3.5-1.8-5.8-1.8c-3.7,0-6.8,1.8-7.6,4.3
					c-0.7-0.3-1.5-0.5-2.4-0.5c-2.6,0-4.7,1.5-4.7,3.3s2.1,3.3,4.7,3.3c1.6,0,3.1-0.6,3.9-1.5c1.4,1.2,3.6,2,6.1,2
					c2.3,0,4.4-0.7,5.8-1.9c0.1,0.1,0.2,0.3,0.3,0.4c-0.4,0.7-0.6,1.4-0.6,2.1c0,3.7,5.3,6.6,11.7,6.6c3,0,5.7-0.6,7.7-1.7
					c3.1,0.9,6.8,1.4,10.7,1.4c9.8,0,17.9-3.2,19.7-7.5c0.9,0.3,1.8,0.5,2.9,0.5c3.6,0,6.5-2.1,6.5-4.6S425.9,523.3,422.3,523.3z"/>
			</g>
		</g>
	</g>
</g>
<g>
	<circle class="st1" cx="512" cy="512" r="468.4"/>
	<circle class="st1" cx="512" cy="512" r="468.4"/>
	<g>
		<g>
			<path class="st28" d="M334.5,370.6c-1.6-0.3-3.3,1.5-3.4,3.7c0.4,0.2,1,1,1.7,1.1c1.4,0.2,3.3-1.6,3.2-3.3
				C335.9,371.6,335.1,370.7,334.5,370.6z"/>
			<path class="st28" d="M285.1,175.7c2.5,0.9,4.6,0.2,6.5-1.3c5-4.2,19.7-3.3,24.6-0.9l0,0c0,0,0,0,0,0c0.1,0,0.2,0.1,0.3,0.1
				c0.1,0.1,0.3,0.2,0.4,0.3c1.1,0.6,3.3,1.8,4.6,2.4c0,0,0,0,0,0c0.2,0.1,0.4,0.2,0.6,0.3c1,0.5,2.2,0.8,3.2,1.1
				c1.2,0.4,2.5,0.6,3.6,1.2c0.5,0.2,1,0.9,1.1,1.5c0.4,1.4,0.7,2.8,1,4.2c0.3,1.4,0.8,2.9,0.9,4.3c0.5,4.9,0.9,9.5,1.6,14.4
				c0.1,0.9,1.5,1.6,2.3,2.4c0.4-0.9,1.2-1.7,1.3-2.6c0.1-5,0.1-9.9,0-14.9c0-3.2-1.1-6-4.4-7.8c-0.4-0.2-0.8-1-0.7-1.5
				c0.7-3.4,0.3-3.8-3-5.7c-4.4-2.6-9.4-3.5-14.3-4.1c-4.9-0.6-17.1-1.8-22.1,0.1c-0.8,0.3-1.8,0.2-2.7,0c-2.4-0.4-5,0.4-6.3,2.2
				C282.3,173.2,282.9,174.9,285.1,175.7z"/>
			<path class="st28" d="M328.7,378.5c-3,2.4-6.4,1.8-9.9,1.4c-2.3-0.3-4.7-0.2-7-0.2c-3,0-13,0.4-16,0.2c-2.6-0.2-5.2-0.7-7.6-1.6
				c-2.8-1.1-5.3-2.8-8.1-4.1c-3-1.4-4.8-3.5-5.1-6.5c-0.2-1.9-0.4-3.8-0.6-5.6c-0.7-8.8-1.6-17.6-2.1-26.4
				c-0.3-5.2,0.4-6.3,0.2-11.5c-0.2-7.8-0.7-6.4-1-14.2c-0.2-5.7-0.4-1.5-0.6-7.2c-0.1-3.8-0.5-7.7-0.5-11.5
				c0.1-6.7,0.5-13.5,0.7-20.2c0.1-2.7-0.1-5.4-0.1-8.1c0.1-7.4,0.2-11.9,0.3-19.3c0-5.8,0-9.1-0.1-14.9c0,0-0.4-3,0-4.3
				c0,0,0,0,0-0.1c0,0.5,0,0.7,0,0.7c0-0.3,0-0.5,0-0.8c0.3-1.1,0.5-2.9,0.2-4.8c0,0,0-0.1,0-0.1c0.1-2,0.2-3.9,0.3-6.7
				c0.1-2.4,0-4.9,0.2-7.3c0-0.3,0.1-0.7,0.2-1c0.2-1.3,0.7-3.6,1-4.2c0.5-0.8,0.6-4.4,0.7-5.5c0-0.1,0-0.2,0-0.3
				c0.1-0.5,1.1-1.2,1.8-1.3c1.9-0.2,2.7-1.1,2.7-2.7c0-2,0.3-4-0.2-5.8c-0.8-2.8-0.1-4.9,1.8-7.1c0.6-0.7,0.2-2,0.3-3
				c-1.1,0.3-2.4,0.3-3.2,0.9c-1.7,1.3-2.9,3.1-4.5,4.5c-2,1.7-3.1,3.6-3.1,6c0,0.8-0.3,1.6-0.4,2.4c-0.8,7-2.3,13.7-2.4,20.7
				c-0.2,13.1,0.5,13.3,0.7,26.4c0.2,8.9,0.2,14.9,0.2,23.8c0,2.6-0.1,5.3-0.1,7.9c0.1,4,0.4,8.1,0.3,12.1
				c-0.2,9.9-0.9,15.9-0.9,25.8c0,11.1,0.5,6.8,0.7,17.9c0.2,14.4,0.3,24.6,0.6,39c0.1,6.2,1.1,12.3,5.5,17.6c2.5,3.1,5.6,5,8.8,4.3
				c7.8-1.6,22.6-0.7,30,1.1c5.9,1.5,10.8,0.2,15.7-2.1c1.9-0.9,2.9-2.4,2.5-4.7C329.9,378.2,329.2,378.2,328.7,378.5z"/>
			<path class="st28" d="M336.5,211c-0.1-0.9-0.9-1.7-1.4-2.5c-0.3,0.1-0.7,0.1-1,0.2c-0.2,1.3-0.7,2.6-0.7,3.9c0,5.7,0.1,1,0,6.7
				c0,4.4-0.2,6.4-0.3,10.8c0,1.1-0.4,1.7-1.2,1.9l0.9,4c0.2,0.1,0.5,0.1,0.7,0.2c0.8,0.2,1.8,0.8,2.4,0.6c0.6-0.3,1.1-1.2,1.1-2
				c0.2-1.3-0.1-2.7,0-4C337.6,219.8,337.9,221.9,336.5,211z"/>
			<path class="st28" d="M339.6,348c-0.5-11.8-0.5-14.8-0.7-26.7c-0.1-5.2,0-5.7-0.1-10.9c-0.2-5.8-0.6-1.5-0.9-7.3
				c-0.1-1.3-0.1-2.6,0.2-3.8c0.4-1.9,0.4-3.7-1-5.4c-0.3-0.4-0.2-1.7,0.3-2c1.8-1.1,1.9-2.6,1.6-4.3c-0.7-4.7-1.8-9.5-1.9-14.2
				c-0.2-6.8,0.1-13.6,0.7-20.4c0.4-4.4-0.4-5.8-0.8-10.2c-0.1-0.5-0.6-0.9-1-1.4c-0.5,0.3-1.2,0.6-1.6,1c-0.4,0.5-0.6,1.1-0.8,1.7
				c0,0.1,0,0.2-0.1,0.3c-0.5,2-0.2,6.9-0.2,6.9l0,0c0.3,3.6,0.6,4.4,0.8,8c0,0.2-0.2,0.4-0.2,0.6c-0.2,1-0.4,2-0.5,2.9
				c-0.1,1.9-0.2,3.9-0.2,5.8c0,2.5,0.1,5,0.2,7.4c0.1,1.9,0.1,3.7,0.2,5.6c0,0.7-0.1,1.4,0,2c0.6,2.9-0.4,5.1-1,8.5
				c-0.2,1.1-0.2,2.2-0.2,2.5c0.1,4.5-0.1,3.1,0.1,7.6c0.1,1.9,0.9,1.8,0.9,3.7c0.2,6.8,0.3,5.1,0.5,11.9
				c0.2,10.4,0.4,11.9,0.6,22.3c0.1,4.2,0.1,8.5,0.1,12.7c0,1.9-0.2,3.9-0.3,5.8c-0.1,2.5-0.1,5.1-0.1,7.6c0,0.6,0.1,1.6,0.5,1.7
				c0.5,0.2,1.8,0,2-0.3c0.9-1.4,2-2.9,2.3-4.4C339.8,358.2,339.8,353.1,339.6,348z"/>
		</g>
		<g>
			<path class="st28" d="M301.6,211.8c-0.4,1.4-1.2,2.6-2.4,3.8c-0.6,0.5-1.1,0.3-1.5-0.6c-1.1-2.6-2.5-5.2-4.1-7.7
				c-3.9,6.6-8.6,12.4-14.1,17.4c-0.3,0.1-0.4,0.1-0.4,0c-0.1-0.1-0.1-0.3,0-0.6c5.4-6,9.4-12.8,12.2-20.3c-1.8-2.7-4.1-5.8-6.9-9.2
				c-0.1-0.4,0-0.5,0.4-0.4c0.2,0.3,0.7,0.6,1.3,1.1c2.6,2.1,4.7,3.9,6.4,5.3c1.2-3.8,2.2-7.5,2.8-11.3l-10.5,0.6
				c-0.4,0-0.6-0.2-0.8-0.6c-0.1-0.4,0-0.6,0.4-0.8l10.7-0.4l2.4-2.8l4.3,3c0.2,0.1,0.2,0.3,0,0.6l-1.7,1.9
				c-1.3,4.6-2.8,8.8-4.7,12.6c2.3,1.9,4.2,3.9,5.8,6C301.8,210.3,301.9,211,301.6,211.8z M302.5,188.2c-0.4,0.1-0.6,0-0.6-0.4
				s0.2-0.6,0.6-0.8l12.8-0.4l1.9-2.4l4.3,2.6c0.2,0.3,0.2,0.5,0,0.8l-1.5,1.9c-2.1,8.1-4.8,14.6-8.1,19.3c3,5.3,7.7,9.9,14.1,14.1
				c0.4,0.1,0.4,0.4,0,0.8c-2.5-0.3-4.9,0.6-7.1,2.6c-4.6-5-7.8-9.6-9.6-13.7c-3,4.1-8.1,8.9-15.2,14.3c-0.3,0.1-0.4,0.1-0.6,0
				c-0.1-0.1-0.1-0.3,0-0.6c6-4.8,10.8-10.5,14.4-17.3c-1.6-4.6-2.7-11.6-3.2-20.8H302.5z M315.3,187.6l-9.9,0.6
				c1,6.9,2.5,12.5,4.5,16.9C312.3,199.7,314.1,193.9,315.3,187.6z"/>
			<path class="st28" d="M285.4,261.7c0,1.6-0.6,3.1-1.9,4.5c-0.6,0.5-1,0.5-1.1,0l0.2-8.4v-13.5l-0.2-6.8l3.8,1.5
				c0.1,0,0.2,0.2,0.2,0.6l-0.8,1.3l-0.2,19.3l2.6-0.2v-22.1c0-3.8,0-6.6,0-8.6l4.1,1.7c0.4,0,0.4,0.3,0,0.8
				c-0.1,0.3-0.3,0.9-0.6,1.9l-0.4,26.3l2.4-0.2l0.4-14.8l-0.2-7.9l4.3,2.1c0.2,0,0.2,0.2,0,0.6l-0.8,1.3l-0.4,18.8l0.6,0.6
				c0.1,0.3,0.2,0.4,0.2,0.6c-0.1,0.1-0.3,0.2-0.6,0.2c-1.9-0.1-5.8,0-11.8,0.4V261.7z M304.4,254.5c-1.5,0-3.1,0.1-4.7,0.4
				c0.1,0,0.1,0-0.2,0l-1.7-1.3l8.4-0.2v-0.2l-0.2-5.3l4.3,1.3c0.4,0.1,0.4,0.4,0.2,0.9l-0.4,0.8v2.4h4.1l1.5-1.5l2.3,2.1
				c0.2,0.3,0.2,0.4-0.2,0.4h-7.7v4.1h3l1.9-1.5l1.9,2.1c0.2,0.3,0.2,0.4-0.2,0.4l-6.6,0.2l-0.2,4.3l7.9-0.2l2.4-2.3l2.8,2.6
				c0.1,0.1,0.1,0.3-0.2,0.6l-12.9,0.2v5.4c-0.3,1.4-1.1,2.7-2.6,4.1c-0.4,0.4-0.7,0.6-0.9,0.6c-0.3,0-0.4-0.2-0.4-0.6l0.2-9.4h-3.6
				c-0.4,0-0.9,0.1-1.5,0.2c-1.6,0-2.8,0.1-3.4,0.4l-1.7-1.5l10.1-0.2v-0.4v-3.9h-0.2c-1.4,0-2.8,0.1-4.1,0.4c-0.4,0-0.6,0-0.8,0
				l-1.7-1.3l6.8-0.2v-3.9H304.4z M325.9,250.8c0.2,0,0.4,0.1,0.4,0.4c0,0.1-0.1,0.3-0.4,0.4c-1.4,0.3-2.8,1.3-4.3,3.2
				c-6-3.1-10.3-6.6-12.8-10.3c-3.4,2.9-6.9,5.4-10.5,7.7c-0.4,0.3-0.4,0.1-0.2-0.4c3.8-3.1,6.9-6.2,9.4-9.4
				c-0.8-1.5-1.5-3.2-2.3-5.1c-1.8,2.3-3.6,4.5-5.6,6.8c-0.4,0.1-0.5,0-0.4-0.4c3.2-5.3,5.3-9.8,6.2-13.7c0-0.4,0.1-0.5,0.4-0.4
				l3,2.4c0.2,0.1,0.2,0.3,0,0.6c-0.3,0.4-0.6,0.8-0.9,1.3l5.1-0.2l1.7-1.7l3.6,2.8c0.2,0.1,0.2,0.3-0.2,0.6l-1.7,1.5
				c-1.9,2.3-3.8,4.3-5.8,6.2C313.4,245.6,318.6,248.2,325.9,250.8z M307.4,234.8c-0.6,0.5-1.1,1.1-1.5,1.9c0.8,1.6,1.7,3.1,2.8,4.3
				c1.6-2.1,3-4.3,4.1-6.6L307.4,234.8z"/>
			<path class="st28" d="M287.9,277.6l4.1,1.9l0.4,0.2l-0.4,0.4l-0.6,1.5v6.8l0.9-0.2l2.3-2.3l2.6,2.6c0.1,0.3,0.1,0.4-0.2,0.6
				l-5.6,0.2v7.7c0.5-0.2,1.2-0.6,2.3-0.9c1.2-0.5,2.2-0.9,2.8-1.3c0.2,0,0.2,0.2,0,0.6c-1.9,1.5-3.6,2.9-5.3,4.1v6.2l0.2,7.9
				c0.1,3.6-1.7,6.5-5.4,8.6c-0.3,0.1-0.4,0.1-0.6,0c-0.1-0.1-0.1-0.3,0-0.6c0.1-1.4-0.4-2.6-1.5-3.6c-0.1-0.1-0.2-0.3-0.2-0.4
				c0-0.1,0.1-0.2,0.4-0.2c2.6,0.1,3.8-0.4,3.4-1.7v-13.3c-2,1.6-3.4,2.9-4.3,3.8c-0.4,0.4-0.6,0.4-0.8,0l-1.5-5.1
				c-0.1-0.1-0.1-0.2,0-0.2c-0.1,0-0.1-0.1,0.2-0.2c1.6-0.4,3.8-1.1,6.4-2.3v-9h-1.1c-0.4,0-0.8,0.1-1.3,0.2c-1.5,0-2.5,0.1-3,0.4
				l-1.1-1.5l6.6-0.2v-1.1c0-4.2-0.1-7.3-0.2-9.2C287.3,277.6,287.5,277.5,287.9,277.6z M297.8,296.8l3,1.5c1.9-1.4,3.2-2.6,3.9-3.8
				l2.4,3c0.1,0.3,0.1,0.4-0.2,0.4l-0.9,0.2c-1.4,0.4-2.9,0.7-4.7,0.9l-0.6,1.5v5.4h1.9l1.5-1.9l2.4,2.1c0.2,0.3,0.2,0.4-0.2,0.4
				l-5.6,0.4l-0.2,8.8l6.9-0.2l0.2-23.6l-6,0.2c-2-0.1-3.7,0-5.1,0.4l-1.3-1.3l12.4-0.2v-1.7l-0.2-6c-2.6,0.4-5.5,0.8-8.6,1.1
				c-0.3,0-0.4-0.1-0.4-0.2c-0.1-0.1-0.1-0.2,0.2-0.4c10-3,15.8-4.9,17.3-5.8l3,3.4c0.2,0.4,0.1,0.6-0.4,0.8c-1.1,0-4.3,0.3-9.4,0.9
				l2.6,1.1c0.2,0,0.2,0.1,0,0.4l-0.4,1.3v5.1l7.5-0.2l2.4-2.4l2.8,3c0.2,0.3,0.2,0.4-0.2,0.4l-12.6,0.2l-0.2,23.6h6.2l0.2-9.2h-4.3
				c-0.3,0-0.4-0.1-0.6-0.4c0-0.2,0.1-0.4,0.4-0.4l4.5-0.2V299l-4.5,0.2c-0.3,0-0.4-0.2-0.4-0.6c0-0.2,0.1-0.4,0.4-0.4h4.3l1.7-2.6
				l3.8,2.3c0.2,0.1,0.3,0.3,0.2,0.6l-0.9,1.5l-0.2,8.4l0.2,5.6c0.2,2.3-0.7,4.4-2.8,6.6c-0.6,0.8-1.1,0.7-1.5-0.2
				c0-0.3-0.1-0.6-0.2-0.9c-0.3-1.5-0.6-2.5-0.9-3l-16.1,0.2v0.6c-0.1,1.5-0.9,3-2.3,4.5c-0.3,0.2-0.5,0.4-0.8,0.4
				c-0.3,0-0.4-0.2-0.4-0.6l0.2-8.8l0.2-9.6c0-2.9-0.1-4.9-0.2-6.2C297.4,296.8,297.6,296.8,297.8,296.8z"/>
			<path class="st28" d="M288.3,345.1c-2.3,0-3.9,0.2-5.1,0.6l-1.5-1.7l35.8-0.8l2.8-3l3.6,3.4l0.2,0.4c-0.1,0.1-0.3,0.2-0.4,0.2
				l-22.5,0.6l4.3,2.1c0.2,0.1,0.2,0.4-0.2,0.8l-1.3,0.9c-3.6,4.9-7.7,9.6-12.2,14.3l21-1.5c-0.8-2-2-4.1-3.8-6.2
				c0-0.4,0.1-0.5,0.4-0.4c0.2,0.3,0.7,0.6,1.3,0.9c5.6,3.9,8.7,6.6,9.2,8.3c0.1,1.7-1.1,3.4-3.6,4.9c-0.5,0.5-0.9,0.2-1.3-0.9
				c-0.5-1.9-1.1-3.8-1.9-5.6c-12.8,2.5-20.9,4.5-24.6,6c-0.5,0.4-0.8,0.3-0.9-0.2l-2.1-4.3c0-0.4,0.1-0.6,0.4-0.6l4.3-0.2
				c4.2-7.1,7.2-13.2,9-18.2L288.3,345.1z M293.7,331.8c-2.3,0-3.9,0.2-5.1,0.6l-1.5-1.5l24.2-0.6l2.8-2.8l3.6,3.2
				c0.1,0.3,0,0.4-0.4,0.4L293.7,331.8z"/>
		</g>
	</g>
</g>
</svg>
