<?xml version="1.0" encoding="utf-8"?>
<!-- Generator: Adobe Illustrator 22.0.0, SVG Export Plug-In . SVG Version: 6.00 Build 0)  -->
<svg version="1.1" id="花港观鱼" xmlns="http://www.w3.org/2000/svg" xmlns:xlink="http://www.w3.org/1999/xlink" x="0px"
	 y="0px" viewBox="0 0 1024 1024" style="enable-background:new 0 0 1024 1024;" xml:space="preserve">
<style type="text/css">
	.st0{fill:#EEEBE6;}
	.st1{fill:none;}
	.st2{fill:url(#SVGID_1_);}
	.st3{clip-path:url(#SVGID_3_);}
	.st4{fill:#FFCDD6;}
	.st5{fill:url(#SVGID_4_);}
	.st6{fill:url(#SVGID_5_);}
	.st7{fill:url(#SVGID_6_);}
	.st8{fill:url(#SVGID_7_);}
	.st9{fill:url(#SVGID_8_);}
	.st10{fill:url(#SVGID_9_);}
	.st11{fill:url(#SVGID_10_);}
	.st12{fill:url(#SVGID_11_);}
	.st13{fill:url(#SVGID_12_);}
	.st14{fill:url(#SVGID_13_);}
	.st15{fill:url(#SVGID_14_);}
	.st16{fill:url(#SVGID_15_);}
	.st17{fill:url(#SVGID_16_);}
	.st18{fill:none;stroke:url(#SVGID_17_);stroke-miterlimit:10;}
	.st19{fill:none;stroke:url(#SVGID_18_);stroke-miterlimit:10;}
	.st20{opacity:0.5;fill:#3E3F3E;}
	.st21{fill:url(#SVGID_19_);}
	.st22{fill:#3E3F3E;}
	.st23{fill:url(#SVGID_20_);}
	.st24{fill:url(#SVGID_21_);}
	.st25{fill:url(#SVGID_22_);}
	.st26{fill:url(#SVGID_23_);}
	.st27{fill:url(#SVGID_24_);}
	.st28{fill:url(#SVGID_25_);}
	.st29{fill:#99000F;}
</style>
<path class="st0" d="M0,0v1024h1024V0H0z M512,980.4C253.3,980.4,43.6,770.7,43.6,512S253.3,43.6,512,43.6S980.4,253.3,980.4,512
	S770.7,980.4,512,980.4z"/>
<circle class="st1" cx="512" cy="512" r="468.4"/>
<circle class="st1" cx="512" cy="512" r="468.4"/>
<g>
	
		<linearGradient id="SVGID_1_" gradientUnits="userSpaceOnUse" x1="345.7619" y1="487.0335" x2="345.7619" y2="487.5761" gradientTransform="matrix(0.9475 0.3199 -0.3199 0.9475 245.3042 -90.8239)">
		<stop  offset="0" style="stop-color:#FFCDD6"/>
		<stop  offset="0.3975" style="stop-color:#6D8DAF"/>
		<stop  offset="1" style="stop-color:#253A59"/>
	</linearGradient>
	<path class="st2" d="M417.2,481.8c-0.3-0.4-0.4-0.7-0.4-0.7C417,481.4,417.1,481.6,417.2,481.8z"/>
</g>
<g>
	<defs>
		<circle id="SVGID_2_" cx="512" cy="512" r="468.4"/>
	</defs>
	<clipPath id="SVGID_3_">
		<use xlink:href="#SVGID_2_"  style="overflow:visible;"/>
	</clipPath>
	<g class="st3">
		<g>
			<path class="st4" d="M422.2,647.6c1.3-11,40-1.3,59.2-10.4C481.4,637.2,459.8,673.7,422.2,647.6z"/>
			<g>
				<linearGradient id="SVGID_4_" gradientUnits="userSpaceOnUse" x1="349.2148" y1="524.3691" x2="438.1318" y2="524.3691">
					<stop  offset="0" style="stop-color:#FFCDD6"/>
					<stop  offset="0.3975" style="stop-color:#6D8DAF"/>
					<stop  offset="1" style="stop-color:#253A59"/>
				</linearGradient>
				<path class="st5" d="M349.2,435.7c0,0,17.4,16.5,18.8,34.8c1.4,18.4,6.8,74.3,20.8,102.8c11.9,24.1,24.1,33.7,37.3,41.9
					c0,0,3.5,1.6,5.2,4.7l6.6-4.7c0,0,2.8-29.9-15.5-61.9c-12.7-22.1-18.5-26.6-39.6-52.3c-11.7-14.2-11.2-22.3-11.3-23.6
					c-1.2-10.1,7.3-37.4-3.8-48.7C367.8,428.8,379,467.4,349.2,435.7z"/>
				<linearGradient id="SVGID_5_" gradientUnits="userSpaceOnUse" x1="367.3437" y1="565.8212" x2="393.0847" y2="565.8212">
					<stop  offset="0" style="stop-color:#FFCDD6"/>
					<stop  offset="0.3975" style="stop-color:#6D8DAF"/>
					<stop  offset="1" style="stop-color:#253A59"/>
				</linearGradient>
				<path class="st6" d="M393.1,581.3c0,0-9.2-3.6-14.3-10.6c-2.3-3.1-3.6-7.9-4.4-12.1c-1-5.3-7.1-8.1-7.1-8.1s7.5,2.5,9.7,7.4
					c1.9,4.1,4.3,8.6,6.8,11C389.3,574.1,393.1,581.3,393.1,581.3z"/>
				
					<linearGradient id="SVGID_6_" gradientUnits="userSpaceOnUse" x1="-411.739" y1="974.8121" x2="-394.3596" y2="974.8121" gradientTransform="matrix(-0.5757 0.8177 0.8177 0.5757 -610.5661 315.6163)">
					<stop  offset="0" style="stop-color:#FFCDD6"/>
					<stop  offset="0.3975" style="stop-color:#6D8DAF"/>
					<stop  offset="1" style="stop-color:#253A59"/>
				</linearGradient>
				<path class="st7" d="M425.2,562.6c0,0,2.3-9.6-0.5-17.8c-2.8-8.2-13.3-12.3-13.3-12.3s7.8,7.9,8.9,15.4
					C421.5,555.4,425.2,562.6,425.2,562.6z"/>
				
					<linearGradient id="SVGID_7_" gradientUnits="userSpaceOnUse" x1="481.5482" y1="868.1736" x2="476.4557" y2="875.4065" gradientTransform="matrix(0.7512 -0.4337 0.5 0.866 -360.8541 70.5788)">
					<stop  offset="0" style="stop-color:#FFCDD6"/>
					<stop  offset="0.3975" style="stop-color:#6D8DAF"/>
					<stop  offset="1" style="stop-color:#253A59"/>
				</linearGradient>
				<path class="st8" d="M438.8,617.9l-5.8,3.4c-1,0.6-2.3,0.2-2.8-0.8l0,0c-0.6-1-0.2-2.3,0.8-2.8l5.8-3.4c1-0.6,2.3-0.2,2.8,0.8
					l0,0C440.2,616.1,439.8,617.4,438.8,617.9z"/>
				<linearGradient id="SVGID_8_" gradientUnits="userSpaceOnUse" x1="385.0016" y1="552.7394" x2="417.4922" y2="552.7394">
					<stop  offset="0" style="stop-color:#FFCDD6"/>
					<stop  offset="0.3975" style="stop-color:#6D8DAF"/>
					<stop  offset="1" style="stop-color:#253A59"/>
				</linearGradient>
				<path class="st9" d="M385,525.8c0,0,12,15.1,15.5,21.8s14.1,29.7,17,32.1c0,0-8.5-7.7-19.1-29.3S389.5,532.4,385,525.8z"/>
			</g>
			<g>
				
					<linearGradient id="SVGID_9_" gradientUnits="userSpaceOnUse" x1="490.4607" y1="442.6884" x2="479.2617" y2="446.0089" gradientTransform="matrix(0.9242 -0.3819 0.3819 0.9242 -159.1679 200.6286)">
					<stop  offset="0" style="stop-color:#FFCDD6"/>
					<stop  offset="0.3975" style="stop-color:#6D8DAF"/>
					<stop  offset="1" style="stop-color:#253A59"/>
				</linearGradient>
				<path class="st10" d="M458.7,435.5c0,0,0.8-14-0.3-18.5c0,0,5.2,3.7,3.6,10.6L458.7,435.5z"/>
				
					<linearGradient id="SVGID_10_" gradientUnits="userSpaceOnUse" x1="281.364" y1="177.2365" x2="270.165" y2="180.557" gradientTransform="matrix(0.9556 0.2946 -0.2946 0.9556 277.2989 185.2138)">
					<stop  offset="0" style="stop-color:#FFCDD6"/>
					<stop  offset="0.3975" style="stop-color:#6D8DAF"/>
					<stop  offset="1" style="stop-color:#253A59"/>
				</linearGradient>
				<path class="st11" d="M482.2,444.6c0,0,9.6-10.2,11.6-14.4c0,0,1.7,6.2-4,10.5L482.2,444.6z"/>
				
					<linearGradient id="SVGID_11_" gradientUnits="userSpaceOnUse" x1="534.7346" y1="390.554" x2="510.4598" y2="380.2144" gradientTransform="matrix(0.9242 -0.3819 0.3819 0.9242 -159.1679 200.6286)">
					<stop  offset="0" style="stop-color:#FFCDD6"/>
					<stop  offset="0.3975" style="stop-color:#6D8DAF"/>
					<stop  offset="1" style="stop-color:#253A59"/>
				</linearGradient>
				<path class="st12" d="M457.9,343.8c0,0,20.8,4.3,26.1,26.8c0,0-9-14.1-18.2-14.8C482.7,356.6,457.9,343.8,457.9,343.8z"/>
				
					<linearGradient id="SVGID_12_" gradientUnits="userSpaceOnUse" x1="461.7342" y1="442.1478" x2="529.6742" y2="442.1478" gradientTransform="matrix(0.9242 -0.3819 0.3819 0.9242 -159.1679 200.6286)">
					<stop  offset="0" style="stop-color:#FFCDD6"/>
					<stop  offset="0.3975" style="stop-color:#6D8DAF"/>
					<stop  offset="1" style="stop-color:#253A59"/>
				</linearGradient>
				<path class="st13" d="M450.6,467.2c0,0-1.8-17.9,17.9-51.7c11.2-19.3,16.9-35,15.5-45.4c0,0,9.4,18.7,8.3,46
					c-1.1,27.4-21.8,44.2-38.2,52.6L450.6,467.2z"/>
				<path class="st4" d="M452.1,471.3l-2.7-1.5c-1-0.6-1.4-1.8-0.8-2.8h0c0.6-1,1.8-1.4,2.8-0.8l2.7,1.5c1,0.6,1.4,1.8,0.8,2.8l0,0
					C454.4,471.5,453.1,471.8,452.1,471.3z"/>
				
					<linearGradient id="SVGID_13_" gradientUnits="userSpaceOnUse" x1="492.604" y1="447.9749" x2="512.5621" y2="447.9749" gradientTransform="matrix(0.9242 -0.3819 0.3819 0.9242 -159.1679 200.6286)">
					<stop  offset="0" style="stop-color:#FFCDD6"/>
					<stop  offset="0.3975" style="stop-color:#6D8DAF"/>
					<stop  offset="1" style="stop-color:#253A59"/>
				</linearGradient>
				<path class="st14" d="M471.5,437c0,0,10-24.1,9.8-28.5C481.3,408.5,484.9,416.1,471.5,437z"/>
			</g>
		</g>
		<g>
			
				<linearGradient id="SVGID_14_" gradientUnits="userSpaceOnUse" x1="713.2214" y1="718.5131" x2="713.2214" y2="653.6973" gradientTransform="matrix(0.9983 -5.885553e-02 5.885553e-02 0.9983 -36.8679 169.0134)">
				<stop  offset="0" style="stop-color:#FFCDD6"/>
				<stop  offset="0.3975" style="stop-color:#6D8DAF"/>
				<stop  offset="1" style="stop-color:#253A59"/>
			</linearGradient>
			<path class="st15" d="M744,794l-19.8-6l-24.8-7.6l-17.7,17.3l1.9,32.9c0,0,18.7,12,23.5,13.4c4.8,1.4,15.6-0.2,22.6-1.3
				c7-1.1,18.2-9.6,19.3-17.4C750.1,817.3,744,794,744,794z"/>
			
				<linearGradient id="SVGID_15_" gradientUnits="userSpaceOnUse" x1="966.1398" y1="761.4226" x2="966.1398" y2="673.7731" gradientTransform="matrix(0.9983 -5.885553e-02 5.885553e-02 0.9983 -36.8679 169.0134)">
				<stop  offset="0" style="stop-color:#FFCDD6"/>
				<stop  offset="0.3975" style="stop-color:#6D8DAF"/>
				<stop  offset="1" style="stop-color:#253A59"/>
			</linearGradient>
			<path class="st16" d="M895.1,823l3.1-2.7c1.9-1.6,4.2-2.6,6.7-2.7l11-0.7c3.2-0.2,6.1-1.7,8.1-4.2c1.9-2.4,3.8-5.4,3.7-7.4
				c-0.2-2.7,3.4-4.1,5.5-4.7c1.1-0.3,2.2-0.8,3.2-1.5c4-2.8,14.4-9.3,20.2-7.2c2.9,1.1,5.6,1.1,7.8,0.7c2.6-0.5,4.9-2.1,6.6-4.1
				c2-2.4,7-5.9,18.8-4c17.4,2.9,38.9-4.1,48.3,10.7c6,9.4,9.2,19.4,10.8,25.4c0.9,3.4,0.1,7.1-2.2,9.8l-4.2,5.1
				c-1.2,1.5-2,3.2-2.4,5l-1.7,9.1c-0.1,0.5-0.2,1-0.4,1.5l-1.4,4.1c-1.4,4.3-5.4,7.3-9.9,7.6l-20.5,1.2l-14.8,0.9
				c-1,0.1-2.1,0.3-3,0.6l-18.6,6.5c-1,0.3-2,0.5-3,0.6l-12.2,0.7c-1.2,0.1-2.5-0.1-3.7-0.4l-9.1-2.5c-2-0.5-4-0.5-6,0l-6.9,1.9
				c-2.2,0.6-4.6,0.5-6.7-0.2l-12.1-4.3c-2.1-0.7-3.8-2-5.2-3.8l-11.8-15.4c-1.5-2-2.4-4.5-2.3-7.1l0.3-10.5
				C891.3,828,892.7,825,895.1,823z"/>
			
				<linearGradient id="SVGID_16_" gradientUnits="userSpaceOnUse" x1="848.6229" y1="811.7725" x2="848.6229" y2="95.8744" gradientTransform="matrix(0.9983 -5.885553e-02 5.885553e-02 0.9983 -36.8679 169.0134)">
				<stop  offset="0" style="stop-color:#FFCDD6"/>
				<stop  offset="0.3975" style="stop-color:#6D8DAF"/>
				<stop  offset="1" style="stop-color:#253A59"/>
			</linearGradient>
			<path class="st17" d="M962.9,407.7c-0.6-9.9-8.4-8.3-8.4-8.3l-7.1,8.6l-8,3.4l-6.6,6.8c-5.6-5.5-12.5-2.8-12.5-2.8
				c-4-8.6,0-20.5,0-20.5c7.7-18.6-1.7-28.1-1.7-28.1l-7.4-5.4l-3.8-5.1l-12.2-8.1l-5.2-7.9c4.4-5.5-0.6-9.4-0.6-9.4l-0.3-4.7
				c-3.1-3.3-6.3-16.6-6.3-16.6l-0.8-12.9l-8.9-11.2l-9.2-7.1l-4.1-10.3l-9.5-11.8l-6.1-3.2l-0.7-11.7l-3.3-6.3l-5.5-3.2
				c0,0-7.8-3.6-11.8-10.4s-11.3-3.4-11.3-3.4l-3.4,2l-6-2.6c-7.9-4.2-19.3,0.6-27.5,1.6c-8.1,1.1-20.1,17.6-20.1,17.6l-9.9,11.7
				l-4,11.4l0.7,11.1l-6.1,5.6l-0.1,7.6l2.3,8.7l5.3-0.3l4.8,2.6l0.4,7l-4.3,7.3l-4.5,13.8l0.3,5.3l-6.6,6.8l0.3,5.3l-11.8,8.9
				l-9.4,9.4l0.5,8.2l-3.2,4.9l0.2,4.1l2.3,9.8l6.6,16.6l0.7,11.7l0.6,9.4l-2.3,15.4l-4.5,13.2l1.4,14.6c0,0,7.8,23.6,5.3,30.2
				c-2.5,6.6,0,19.4,0.4,27c0.4,7.6,12.7,6.3,12.7,6.3l-2.1,4.2l-4.1,5.4l0.8,13c0,0-3.2-9.2-8-11.8c-4.8-2.6-6.2,4.5-6.2,4.5
				l-3.8,14.9l4.6,9.1l0.6,9.4l4.4,5.6l4.3,3.8l0.6,9.4l6.4,9l4.8,2.6l3.7,13.3l0.4,7.6l3.6,10.9l5.8,9.6l3.8,14.4l1.4,13.4l3.3,6.3
				l4.9,13.8l2,33.9l0,10l-5.9-0.8l-11.3,6.5l-9.8,12.3l-4.2,8.5l-1.9,8.3l-10.2,15.9l-4.5,32.5l5.2,28.4l41.9,43.9l35.6,17.3
				l40.8,15.2l94.7-15l-7.7-30.6l-1.3-11.7l4.7-19l-1.9-11.6l-7.6-8.9l-16.1-4.9l-12.7-15.7l-18.5-24.7l-12.1-16.9l-9-10l-4.1-22.6
				l2.3-7.2l6-0.4l4.9-5.6l-2.6-4L872,721l7.2-6.9c0,0,1.9-17.7,2.4-19.5s9.3-21.7,9.3-21.7l10.3-13.5l2.5-17.2l1.3-17.6l6.3-22.1
				c0,0,5.3-0.3,13.6-7.3s11-32.9,11-32.9l3.5-20.1c19.6-36.3,13.9-52.1,13.9-52.1l-3.7-32.4l-2.6-13.9c12.7-13.1,9.6-26.4,9.6-26.4
				C961.4,415.5,962.9,407.7,962.9,407.7z M888.4,422.1l-8.2,9.9l-8.7,11.9l-6.2,14.1l-3.7-3.9l0.8-6.5l-0.2-3.2l-0.3-4.4l1.9-8.3
				l4.2-7.9l4.1-0.2l2.5-7.8l4.3-7.3l4.4-4.4l2.5,1.9l0.8,3.2l1.2,6.1l1.5,5.7L888.4,422.1z"/>
			
				<linearGradient id="SVGID_17_" gradientUnits="userSpaceOnUse" x1="755.9961" y1="535.824" x2="755.9961" y2="535.824" gradientTransform="matrix(0.9983 -5.885553e-02 5.885553e-02 0.9983 -36.8679 169.0134)">
				<stop  offset="0" style="stop-color:#FFCDD6"/>
				<stop  offset="0.3975" style="stop-color:#6D8DAF"/>
				<stop  offset="1" style="stop-color:#253A59"/>
			</linearGradient>
			<path class="st18" d="M749.4,659.4"/>
			
				<linearGradient id="SVGID_18_" gradientUnits="userSpaceOnUse" x1="758.9235" y1="211.6723" x2="758.9235" y2="211.6723" gradientTransform="matrix(0.9983 -5.885553e-02 5.885553e-02 0.9983 -36.8679 169.0134)">
				<stop  offset="0" style="stop-color:#FFCDD6"/>
				<stop  offset="0.3975" style="stop-color:#6D8DAF"/>
				<stop  offset="1" style="stop-color:#253A59"/>
			</linearGradient>
			<path class="st19" d="M733.2,335.7"/>
			<path class="st20" d="M736.1,566l-5.1,0.3c0,0-0.1,0-0.1,0l-5.5,3.8c-0.1,0-0.1,0.1-0.1,0.2l0.5,8.2c0,0.1,0.1,0.2,0.2,0.2
				l5.2-0.3c0.1,0,0.2,0,0.2,0.1l6.4,17.5c0.1,0.2,0.3,0.2,0.4,0l6.7-11.2c0,0,0,0,0,0l0.7-0.8c3.8-4.4,5.7-10.1,5.4-15.9l0,0
				c0-0.1,0-0.1-0.1-0.2l-4.1-2.6c-0.1,0-0.1,0-0.2,0l-8.2,4.5c-0.1,0.1-0.2,0-0.3-0.1l-1.8-3.7C736.2,566,736.2,566,736.1,566z"/>
			
				<linearGradient id="SVGID_19_" gradientUnits="userSpaceOnUse" x1="624.8097" y1="762.5936" x2="624.8097" y2="577.6873" gradientTransform="matrix(0.9983 -5.885553e-02 5.885553e-02 0.9983 -36.8679 169.0134)">
				<stop  offset="0" style="stop-color:#FFCDD6"/>
				<stop  offset="0.3975" style="stop-color:#6D8DAF"/>
				<stop  offset="1" style="stop-color:#253A59"/>
			</linearGradient>
			<path class="st21" d="M599.7,882.7l-12.5,2.1c-0.4,0.1-0.8,0.1-1.1,0.1l-10.2-0.6c-1.6-0.1-3.1-0.9-4-2.3l-4.7-7.3
				c-0.5-0.7-0.8-1.6-0.8-2.5l-0.3-5.5c-0.1-2,1-3.9,2.7-4.8l4.7-2.4c0.4-0.2,0.8-0.5,1.2-0.9l1.7-1.7c2.7-2.6,1.8-7.1-1.7-8.4
				l-1.8-0.7c-0.7-0.3-1.4-0.4-2.1-0.3l-20.6,1.2c-1.6,0.1-3.1-0.5-4.1-1.7l-3.8-4.3c-2-2.3-1.6-5.8,0.9-7.5l6.9-4.9
				c0.3-0.2,0.6-0.5,0.9-0.8l7.8-8.8c0.4-0.5,0.7-1,0.9-1.6l6-15.6c0.5-1.2,1.4-2.2,2.6-2.8l2.5-1.2c4-1.9,3.8-7.7-0.3-9.3l0,0
				c-2.6-1-3.9-4-2.9-6.6l0.6-1.5c0.4-1.1,1.3-2.1,2.3-2.6l7.3-3.9c0.6-0.3,1.2-0.8,1.6-1.4c2.5-3.2,11-14.2,10.8-16.2
				c-0.1-2.3,2.9-14.2,2.9-14.2l2.2-10.1c0.3-1.2,0.9-2.2,1.8-2.9l17.5-13.7c0.4-0.3,0.7-0.5,1.1-0.7l18.6-7.9
				c1.4-0.6,2.9-0.5,4.2,0.1l8.3,4.1c0.6,0.3,1.3,0.5,1.9,0.5l9.8,0.6c1.1,0.1,2.2,0.5,3,1.3l5.8,5.2c0.8,0.7,1.3,1.5,1.5,2.5
				l3.3,12.6c0.2,0.8,0.6,1.6,1.2,2.2l7,7.3c0.8,0.9,1.3,2,1.4,3.2l0.2,3.8c0.1,1.3,0.7,2.6,1.7,3.5l8.8,7.9
				c0.2,0.2,0.4,0.4,0.7,0.5l16.7,10.5c2,1.3,2.9,3.7,2.1,5.9l-2.1,6.4c0,0.1-0.1,0.2-0.1,0.4c-0.8,1.9-7.5,17.6-8.1,19.9
				c-0.6,2.1-4.2,15-5,17.8c-0.1,0.4-0.2,0.7-0.2,1.1l-1.1,17.4c-0.1,1,0.2,1.9,0.6,2.8c1.5,2.7,4.9,9.5,3.4,15.1
				c-1.9,7.2-0.2,23.5-8,23.9c-7.8,0.5-27.1,3.9-34.8,6s-16.1,2.5-25.6,1.5c-8.1-0.8-23.8-7.4-28.5-9.4
				C601.7,882.6,600.7,882.5,599.7,882.7z"/>
			<path class="st22" d="M904.4,374.2l-6,0.4c-0.7,0-1.3,0.3-1.8,0.8l-1.9,2.1c-0.7,0.8-2,1.1-3,0.6l-5.1-2.4
				c-0.6-0.3-1.4-0.3-2.1,0L877,379c-0.6,0.3-1.1,0.8-1.4,1.4l-1.5,4c-0.1,0.3-0.2,0.5-0.4,0.7l-9.4,11.2c-0.1,0.1-0.2,0.3-0.3,0.5
				l-11.9,22.5c-0.1,0.2-0.2,0.3-0.2,0.5l-3.3,12.3c-0.3,1.1-1.2,1.8-2.3,1.9l-4.9,0.3c-0.2,0-0.4,0-0.6,0.1l-15.3,4.8
				c-0.4,0.1-0.7,0.3-1,0.5l-11.1,10.1c-0.1,0.1-0.2,0.2-0.3,0.4l-7.9,10.7c-0.1,0.1-0.1,0.1-0.1,0.2l-8.1,13.8
				c-0.3,0.4-0.4,0.9-0.3,1.4l0.6,9.8l0.4,6.3c0,0.5,0.2,1,0.5,1.4l3.9,5.2c0.1,0.1,0.2,0.2,0.3,0.4l7.1,6.5
				c0.5,0.5,1.2,0.7,1.9,0.7l6.8-0.4c0.2,0,0.4,0,0.6-0.1l13.7-4.1c0.4-0.1,0.7-0.3,1-0.6l15.3-14.4c0.1-0.1,0.3-0.3,0.4-0.5
				l10.7-16.1c0.3-0.5,0.5-1,0.4-1.6l-0.6-10.1c0-0.5,0.1-1,0.3-1.4l1.5-2.5c0.2-0.3,0.3-0.6,0.3-1l0.7-5.7c0-0.2,0-0.3,0-0.5
				l-0.2-3l-0.2-4c0-0.2,0-0.5,0.1-0.7l1.7-7.6c0.1-0.2,0.1-0.4,0.2-0.6l3.4-6.3c0.4-0.8,1.2-1.3,2.1-1.3l0.9-0.1
				c1-0.1,2-0.8,2.3-1.8l1.9-5.8c0.1-0.2,0.1-0.4,0.2-0.5l3.9-6.8c0.1-0.2,0.3-0.4,0.4-0.5l2.6-2.6c0.9-0.9,2.3-1,3.3-0.2l0,0
				c0.5,0.4,0.8,0.8,0.9,1.4l0.6,2.3l1.2,6c0,0,0,0.1,0,0.1l0.2,0.9c0.5,2,3.1,2.6,4.4,1l5.7-6.8c0.1-0.1,0.2-0.3,0.3-0.4l6.9-13.1
				c0.2-0.4,0.3-0.9,0.3-1.3l-0.6-9.9c0-0.7,0.2-1.3,0.6-1.8l3.6-4c0.4-0.5,0.7-1.2,0.6-1.8l-0.1-1.7c-0.1-1.4-1.3-2.5-2.7-2.4
				L904.4,374.2z"/>
			
				<linearGradient id="SVGID_20_" gradientUnits="userSpaceOnUse" x1="631.8942" y1="847.2906" x2="631.8942" y2="724.832" gradientTransform="matrix(0.9983 -5.885553e-02 5.885553e-02 0.9983 -36.8679 169.0134)">
				<stop  offset="0" style="stop-color:#FFCDD6"/>
				<stop  offset="0.3975" style="stop-color:#6D8DAF"/>
				<stop  offset="1" style="stop-color:#253A59"/>
			</linearGradient>
			<path class="st23" d="M680,873.9l-22.5,1.3c-0.2,0-0.3,0-0.5,0.1l-14.3,6c-0.5,0.2-1,0.1-1.4-0.2c-2.9-2.3-14.4-11.3-16.5-12.5
				c-2.4-1.4-18.8-14.5-21.7-10.4c-2.7,3.8-14.4,23.4-16.2,26.4c-0.1,0.2-0.2,0.5-0.2,0.8l0.5,8.8c0,0.6,0.4,1.1,0.9,1.3l0,0
				c1.4,0.5,1.1,2.7-0.4,2.8l-5.1,0.3c-0.4,0-0.8,0.2-1,0.5l-9.5,11.4c-0.2,0.3-0.3,0.6-0.3,1l1.2,21.1c0,0.1,0,0.2,0,0.3l-2.2,13
				c-0.1,0.4,0,0.8,0.3,1.1l6.9,8.5c0.2,0.2,0.3,0.4,0.3,0.7c0.4,2.1,2.3,12.9,2.3,14c0.1,1.2,6.6,5.5,11.3,6.8
				c4.5,1.2,20-1,21.7-1.3c0.1,0,0.2,0,0.3,0c2.4,0.1,34.6,1.9,39.1,1.6c4.4-0.3,30-12,32.6-13.2c0.1-0.1,0.3-0.2,0.4-0.3l25.9-25.1
				c0.3-0.3,0.5-0.8,0.4-1.3l-5.7-33.3c0-0.2-0.1-0.5-0.3-0.7L691.5,885c0,0-0.1-0.1-0.1-0.1l-10.3-10.6
				C680.8,874,680.4,873.8,680,873.9z"/>
			
				<linearGradient id="SVGID_21_" gradientUnits="userSpaceOnUse" x1="726.9484" y1="916.0088" x2="726.9484" y2="699.5603" gradientTransform="matrix(0.9983 -5.885553e-02 5.885553e-02 0.9983 -36.8679 169.0134)">
				<stop  offset="0" style="stop-color:#FFCDD6"/>
				<stop  offset="0.3975" style="stop-color:#6D8DAF"/>
				<stop  offset="1" style="stop-color:#253A59"/>
			</linearGradient>
			<path class="st24" d="M614.3,1003.6l9.6-20.3c0.4-0.9,0.6-1.9,0.6-2.9l-0.6-10.9c-0.1-1.5,0.4-3,1.4-4.2l8-9.7l6.4-7.2
				c1.1-1.2,1.6-2.8,1.5-4.3l-0.6-10.6c0-0.6,0-1.2,0.2-1.8l4.5-17.7c0.2-0.8,0.6-1.5,1.1-2.2l8.3-10.8c0.3-0.3,0.6-0.6,0.9-0.9
				l9.1-7.7c1.4-1.2,2.2-3.1,2.1-4.9l-0.9-14.9c-0.1-1.1,0.2-2.1,0.6-3.1l5.9-11.6c0.2-0.4,0.5-0.9,0.8-1.2l8.1-9.2
				c1-1.2,1.6-2.7,1.5-4.3l-0.6-9.5c-0.2-3.8,3.1-6.8,6.9-6.3l14.5,2.1c0.7,0.1,1.3,0.3,1.9,0.6l23.9,12.7c0.1,0.1,0.3,0.2,0.4,0.2
				l31.1,19.8c0.2,0.2,0.5,0.3,0.7,0.5l29.5,25.5c0.9,0.8,2.1,1.3,3.3,1.4l26.7,2.6c0.8,0.1,1.6,0.3,2.4,0.8l11,6.2
				c1.1,0.6,2.3,0.9,3.5,0.8l11.8-1.2c3.4-0.3,6.4,2.2,6.6,5.6l0,0l3,51.7c0,0.3,0.1,0.7,0.2,1l6.6,28c0.6,2.3-0.3,4.8-2.3,6.2
				l-34.8,25.5c-0.2,0.1-0.3,0.3-0.5,0.4c-2.4,2.2-22.1,19.8-34.6,19.8c-12.3,0-47.3-5.4-52.2-6.2c-0.4-0.1-0.8-0.1-1.2-0.1
				c-4.8,0.2-37.8,1.5-39.9,2.4c-2.3,0.9-33.1-5.1-37.1-6.4c-4-1.3-22.9-3.3-26-3.9c-2.3-0.4-14.5-7.9-21.3-12.1
				C613.9,1009.7,613,1006.4,614.3,1003.6z"/>
			
				<linearGradient id="SVGID_22_" gradientUnits="userSpaceOnUse" x1="910.2927" y1="878.4718" x2="910.2927" y2="745.0297" gradientTransform="matrix(0.9983 -5.885553e-02 5.885553e-02 0.9983 -36.8679 169.0134)">
				<stop  offset="0" style="stop-color:#FFCDD6"/>
				<stop  offset="0.3975" style="stop-color:#6D8DAF"/>
				<stop  offset="1" style="stop-color:#253A59"/>
			</linearGradient>
			<path class="st25" d="M1002.2,871.4l-32.8-10c-1.3-0.4-2.6-0.6-4-0.7c-8.2-0.5-38.7-2.2-40.7-2.1c-2.3,0.1-27.5,11-29.1,11.1
				l-16.1,0.9c-1.7,0.1-3.5-0.1-5.1-0.5l-6.7-1.7c-3.8-1-7.8-0.6-11.4,1.1l-6.7,3.2c-3.1,1.5-5.8,3.9-7.5,6.9
				c-3.5,6.1-9.1,16.3-9,17.9c0.1,1.7-2.4,5.8-3.8,7.9c-0.5,0.8-1.1,1.6-1.8,2.3c-1.6,1.7-4.8,5.3-5.9,7.7
				c-1.4,3.2-3.1,14.3-2.9,16.6c0.1,1.2-0.9,6-1.8,10.3c-1.1,5-4.3,9.2-8.8,11.5l-11.3,5.8c-0.5,0.3-1,0.5-1.5,0.8
				c-1.7,1.1-5.3,3.7-5.8,6.1l-1,5.6c-0.9,4.5,0.2,9.2,2.8,13l0,0c2.8,3.9,7.1,6.5,11.8,7l13.1,1.5c1,0.1,2,0.1,3,0.1l32.5-1.9
				l174.8-5.7c1.3,0,2.6-0.2,3.8-0.6c6.1-1.7,24.4-7.2,25.3-14.4c0.8-6.6-0.6-28.2-1.4-38c-0.2-3.2-1.4-6.2-3.3-8.8l-20.9-28.3
				c-0.6-0.8-1.2-1.5-1.8-2.1l-19.3-18.7C1007.1,873.6,1004.7,872.2,1002.2,871.4z"/>
		</g>
		<g>
			
				<linearGradient id="SVGID_23_" gradientUnits="userSpaceOnUse" x1="411.0201" y1="817.2237" x2="411.0201" y2="714.4459" gradientTransform="matrix(-0.999 -4.410410e-02 -4.410410e-02 0.999 736.1879 160.7755)">
				<stop  offset="0" style="stop-color:#FFCDD6"/>
				<stop  offset="0.3975" style="stop-color:#6D8DAF"/>
				<stop  offset="1" style="stop-color:#253A59"/>
			</linearGradient>
			<path class="st26" d="M369.5,958.7l18.6-10.6c0.1-0.2,2.9-13.8,2.9-14l1.3-6.2c0.3-0.7-5.4-11.4-5.4-12.1l-4.9-30.1
				c0-0.7-2.6-3.5-2.9-4.1l-2.2-2.3c-0.2-0.4-0.4-0.9-0.5-1.4l-2-1.9c-0.6-3-4.7-8.7-7.5-7.4l-4.6-1.6c-0.8,0.3-4.7,0.5-5.5,0.4
				l-7.1,1.7c-0.1,0-5.6-4.8-5.7-4.8l-9,1c-0.2,0-0.4,0-0.5,0l-10.6,1c-1.4,0.1-2.8-0.4-3.8-1.4l-2-2c-0.8-0.8-2-1.3-3.1-1.4
				l-9.8-0.4l-13.7-0.6c-1.4-0.1-2.6-0.7-3.5-1.8l-0.8-1c-0.9-1.1-2.1-1.7-3.5-1.8l-19.7-0.9c-1,0-1.9,0.2-2.7,0.7l-57.3,35.3
				c-0.9,0.6-1.6,1.4-2,2.5l-12.1,34.2c-0.7,1.9-0.1,4.1,1.6,5.4l24.8,19.1c0.8,0.7,1.9,1,3,1l43.4-0.5c0.2,0,0.3,0,0.5,0l101.5,9.6
				C366.8,962.6,368.9,961,369.5,958.7z"/>
			
				<linearGradient id="SVGID_24_" gradientUnits="userSpaceOnUse" x1="596.5919" y1="741.9173" x2="596.5919" y2="562.9365" gradientTransform="matrix(-0.999 -4.410410e-02 -4.410410e-02 0.999 736.1879 160.7755)">
				<stop  offset="0" style="stop-color:#FFCDD6"/>
				<stop  offset="0.3975" style="stop-color:#6D8DAF"/>
				<stop  offset="1" style="stop-color:#253A59"/>
			</linearGradient>
			<path class="st27" d="M236.5,875.5l8.8-37.3c0.1-0.4,0.2-0.7,0.3-1l8.7-21.5c0.4-1,0.6-2.1,0.5-3.1l-3.1-50.4
				c-0.1-1.1-0.4-2.1-0.9-3l-5.8-10.6c-0.4-0.7-0.6-1.4-0.8-2.1l-0.9-4.9c-0.9-4.5-5.8-7.1-10-5.2l0,0c-1.2,0.5-2.4,0.7-3.7,0.6
				l-19.4-2.1c-0.2,0-0.4,0-0.7,0l-25.3-0.4c-0.3,0-0.6,0-0.8,0l-16,1.6c-2.1,0.2-4.2-0.5-5.8-2.1l3-7.6c-1.3-1.3-15.3-14-17.1-14.1
				l-16.8-8.4l-20.7-0.9c-2.1-0.1-4-1.1-5.3-2.6l-1.3-1.6c-1.3-1.6-3.2-2.6-5.3-2.6l-29.7-1.3c-1.4-0.1-2.9,0.3-4.1,1.1l-78,77.7
				c-1.4,0.9-2.4,2.2-3,3.7l-18.3,51.6c-1,2.9-0.1,6.2,2.4,8.1L5,865.8c1.3,1,2.9,1.5,4.5,1.5l65.4-0.8c0.3,0,0.5,0,0.8,0L228.8,881
				C232.4,881.3,235.7,879,236.5,875.5z"/>
			
				<linearGradient id="SVGID_25_" gradientUnits="userSpaceOnUse" x1="348.3549" y1="767.2851" x2="348.3549" y2="647.131" gradientTransform="matrix(-0.999 -4.410410e-02 -4.410410e-02 0.999 602.2452 162.7542)">
				<stop  offset="0" style="stop-color:#FFCDD6"/>
				<stop  offset="0.3975" style="stop-color:#6D8DAF"/>
				<stop  offset="1" style="stop-color:#253A59"/>
			</linearGradient>
			<path class="st28" d="M148,806.1l29.4-9.4c1.2-0.4,2.4-0.6,3.6-0.7c7.4-0.5,34.8-2.5,36.6-2.4c2.1,0.1,24.9,9.5,26.3,9.6
				l14.5,0.6c1.6,0.1,3.1-0.1,4.6-0.5l6-1.6c3.4-0.9,7.1-0.6,10.3,0.9l6.1,2.8c2.9,1.3,5.2,3.4,6.8,6.1c3.2,5.5,8.4,14.6,8.4,16
				c-0.1,1.5,2.2,5.1,3.5,7.1c0.5,0.7,1,1.4,1.6,2c1.4,1.5,4.4,4.7,5.4,6.9c1.3,2.9,3,12.8,2.9,14.9c0,1.1,0.9,5.4,1.8,9.3
				c1,4.4,4,8.2,8.1,10.2l10.3,5.1c0.5,0.2,0.9,0.5,1.3,0.7c1.5,1,4.8,3.3,5.3,5.4l1,5c0.8,4.1,0,8.3-2.4,11.7h0
				c-2.4,3.6-6.3,5.9-10.6,6.5l-11.8,1.6c-0.9,0.1-1.8,0.2-2.7,0.1l-29.3-1.3l-157.4-2.8c-1.2,0-2.3-0.2-3.5-0.5
				c-5.5-1.4-22.1-6.1-23-12.6c-0.8-6,0.2-25.4,0.7-34.2c0.2-2.9,1.2-5.6,2.8-8l18.5-25.8c0.5-0.7,1-1.3,1.6-1.9l17.1-17.1
				C143.6,808.1,145.7,806.8,148,806.1z"/>
		</g>
	</g>
</g>
<g>
	<circle class="st1" cx="512" cy="512" r="468.4"/>
	<circle class="st1" cx="512" cy="512" r="468.4"/>
	<g>
		<g>
			<path class="st29" d="M334.5,370.6c-1.6-0.3-3.3,1.5-3.4,3.7c0.4,0.2,1,1,1.7,1.1c1.4,0.2,3.3-1.6,3.2-3.3
				C335.9,371.6,335.1,370.7,334.5,370.6z"/>
			<path class="st29" d="M285.1,175.7c2.5,0.9,4.6,0.2,6.5-1.3c5-4.2,19.7-3.3,24.6-0.9l0,0c0,0,0,0,0,0c0.1,0,0.2,0.1,0.3,0.1
				c0.1,0.1,0.3,0.2,0.4,0.3c1.1,0.6,3.3,1.8,4.6,2.4c0,0,0,0,0,0c0.2,0.1,0.4,0.2,0.6,0.3c1,0.5,2.2,0.8,3.2,1.1
				c1.2,0.4,2.5,0.6,3.6,1.2c0.5,0.2,1,0.9,1.1,1.5c0.4,1.4,0.7,2.8,1,4.2c0.3,1.4,0.8,2.9,0.9,4.3c0.5,4.9,0.9,9.5,1.6,14.4
				c0.1,0.9,1.5,1.6,2.3,2.4c0.4-0.9,1.2-1.7,1.3-2.6c0.1-5,0.1-9.9,0-14.9c0-3.2-1.1-6-4.4-7.8c-0.4-0.2-0.8-1-0.7-1.5
				c0.7-3.4,0.3-3.8-3-5.7c-4.4-2.6-9.4-3.5-14.3-4.1c-4.9-0.6-17.1-1.8-22.1,0.1c-0.8,0.3-1.8,0.2-2.7,0c-2.4-0.4-5,0.4-6.3,2.2
				C282.3,173.2,282.9,174.9,285.1,175.7z"/>
			<path class="st29" d="M328.7,378.5c-3,2.4-6.4,1.8-9.9,1.4c-2.3-0.3-4.7-0.2-7-0.2c-3,0-13,0.4-16,0.2c-2.6-0.2-5.2-0.7-7.6-1.6
				c-2.8-1.1-5.3-2.8-8.1-4.1c-3-1.4-4.8-3.5-5.1-6.5c-0.2-1.9-0.4-3.8-0.6-5.6c-0.7-8.8-1.6-17.6-2.1-26.4
				c-0.3-5.2,0.4-6.3,0.2-11.5c-0.2-7.8-0.7-6.4-1-14.2c-0.2-5.7-0.4-1.5-0.6-7.2c-0.1-3.8-0.5-7.7-0.5-11.5
				c0.1-6.7,0.5-13.5,0.7-20.2c0.1-2.7-0.1-5.4-0.1-8.1c0.1-7.4,0.2-11.9,0.3-19.3c0-5.8,0-9.1-0.1-14.9c0,0-0.4-3,0-4.3
				c0,0,0,0,0-0.1c0,0.5,0,0.7,0,0.7c0-0.3,0-0.5,0-0.8c0.3-1.1,0.5-2.9,0.2-4.8c0,0,0-0.1,0-0.1c0.1-2,0.2-3.9,0.3-6.7
				c0.1-2.4,0-4.9,0.2-7.3c0-0.3,0.1-0.7,0.2-1c0.2-1.3,0.7-3.6,1-4.2c0.5-0.8,0.6-4.4,0.7-5.5c0-0.1,0-0.2,0-0.3
				c0.1-0.5,1.1-1.2,1.8-1.3c1.9-0.2,2.7-1.1,2.7-2.7c0-2,0.3-4-0.2-5.8c-0.8-2.8-0.1-4.9,1.8-7.1c0.6-0.7,0.2-2,0.3-3
				c-1.1,0.3-2.4,0.3-3.2,0.9c-1.7,1.3-2.9,3.1-4.5,4.5c-2,1.7-3.1,3.6-3.1,6c0,0.8-0.3,1.6-0.4,2.4c-0.8,7-2.3,13.7-2.4,20.7
				c-0.2,13.1,0.5,13.3,0.7,26.4c0.2,8.9,0.2,14.9,0.2,23.8c0,2.6-0.1,5.3-0.1,7.9c0.1,4,0.4,8.1,0.3,12.1
				c-0.2,9.9-0.9,15.9-0.9,25.8c0,11.1,0.5,6.8,0.7,17.9c0.2,14.4,0.3,24.6,0.6,39c0.1,6.2,1.1,12.3,5.5,17.6c2.5,3.1,5.6,5,8.8,4.3
				c7.8-1.6,22.6-0.7,30,1.1c5.9,1.5,10.8,0.2,15.7-2.1c1.9-0.9,2.9-2.4,2.5-4.7C329.9,378.2,329.2,378.2,328.7,378.5z"/>
			<path class="st29" d="M336.5,211c-0.1-0.9-0.9-1.7-1.4-2.5c-0.3,0.1-0.7,0.1-1,0.2c-0.2,1.3-0.7,2.6-0.7,3.9c0,5.7,0.1,1,0,6.7
				c0,4.4-0.2,6.4-0.3,10.8c0,1.1-0.4,1.7-1.2,1.9l0.9,4c0.2,0.1,0.5,0.1,0.7,0.2c0.8,0.2,1.8,0.8,2.4,0.6c0.6-0.3,1.1-1.2,1.1-2
				c0.2-1.3-0.1-2.7,0-4C337.6,219.8,337.9,221.9,336.5,211z"/>
			<path class="st29" d="M339.6,348c-0.5-11.8-0.5-14.8-0.7-26.7c-0.1-5.2,0-5.7-0.1-10.9c-0.2-5.8-0.6-1.5-0.9-7.3
				c-0.1-1.3-0.1-2.6,0.2-3.8c0.4-1.9,0.4-3.7-1-5.4c-0.3-0.4-0.2-1.7,0.3-2c1.8-1.1,1.9-2.6,1.6-4.3c-0.7-4.7-1.8-9.5-1.9-14.2
				c-0.2-6.8,0.1-13.6,0.7-20.4c0.4-4.4-0.4-5.8-0.8-10.2c-0.1-0.5-0.6-0.9-1-1.4c-0.5,0.3-1.2,0.6-1.6,1c-0.4,0.5-0.6,1.1-0.8,1.7
				c0,0.1,0,0.2-0.1,0.3c-0.5,2-0.2,6.9-0.2,6.9l0,0c0.3,3.6,0.6,4.4,0.8,8c0,0.2-0.2,0.4-0.2,0.6c-0.2,1-0.4,2-0.5,2.9
				c-0.1,1.9-0.2,3.9-0.2,5.8c0,2.5,0.1,5,0.2,7.4c0.1,1.9,0.1,3.7,0.2,5.6c0,0.7-0.1,1.4,0,2c0.6,2.9-0.4,5.1-1,8.5
				c-0.2,1.1-0.2,2.2-0.2,2.5c0.1,4.5-0.1,3.1,0.1,7.6c0.1,1.9,0.9,1.8,0.9,3.7c0.2,6.8,0.3,5.1,0.5,11.9
				c0.2,10.4,0.4,11.9,0.6,22.3c0.1,4.2,0.1,8.5,0.1,12.7c0,1.9-0.2,3.9-0.3,5.8c-0.1,2.5-0.1,5.1-0.1,7.6c0,0.6,0.1,1.6,0.5,1.7
				c0.5,0.2,1.8,0,2-0.3c0.9-1.4,2-2.9,2.3-4.4C339.8,358.2,339.8,353.1,339.6,348z"/>
		</g>
		<g>
			<path class="st29" d="M280.6,216.7c-0.3,0.1-0.4,0.1-0.6-0.2c-0.1-0.1-0.1-0.2,0-0.4c6.5-5.5,12-13.1,16.5-22.7l4.3,2.4
				c0.2,0.1,0.2,0.4,0,0.8l-0.8,0.8c-1.4,1.9-2.9,3.9-4.7,6v18.2c-0.3,2-1.2,3.8-2.8,5.4c-0.5,0.4-0.9,0.2-1.1-0.4l0.4-9.2v-10.5
				C288.4,210.2,284.7,213.4,280.6,216.7z M306.8,193v-3.9h-8.1v1.1c-1,1.6-2,2.7-3,3.2c-0.5,0.1-0.8,0-0.9-0.4v-3.8l-5.8,0.2
				c-2.3,0.1-3.9,0.3-5.1,0.6l-1.7-1.7l12.6-0.2v-6.6l4.9,1.7c0.1,0,0.2,0.1,0.2,0.4l-0.8,0.8l-0.2,3.6h7.9l0.4-6.4l5.3,1.5
				c0.4,0,0.4,0.1,0.2,0.4l-0.9,0.9l-0.8,3.4h6.2l2.6-2.8l3.4,3.2c0.2,0.4,0.2,0.6-0.2,0.6l-12.4,0.2l-0.6,2.6
				c-0.8,1.3-1.6,2-2.6,2.3C307,193.7,306.8,193.4,306.8,193z M317.5,198.1l3.4,2.8c0.1,0,0.2,0.1,0.4,0.2c-0.1,0.1-0.3,0.3-0.4,0.4
				l-0.9,0.4c-3.4,2.4-7.1,4.7-11.3,6.9l-0.9,9.2c-0.3,1.8,0.6,2.6,2.6,2.6c2.5,0.1,5.3-0.2,8.3-1.1c1.7-0.4,3.1-1.9,4.1-4.5
				c0.1-0.2,0.2-0.4,0.4-0.4c0.1,0,0.2,0.1,0.2,0.4c-0.4,2.4-0.1,4,0.8,4.9c1.9,1.7,1.6,3.2-0.8,4.3c-3.1,1.1-7.4,1.4-12.8,0.8
				c-3.9-0.5-5.8-3.1-5.6-7.7l0.2-6.8c-0.6,0.3-1.6,0.7-2.8,1.3c-1.5,0.8-2.6,1.3-3.4,1.7c-0.3,0.1-0.4,0.1-0.6,0
				c0-0.1,0.1-0.3,0.2-0.6c2.6-1.5,4.8-2.9,6.6-4.1l0.4-6.9c0-0.9-0.1-2-0.2-3.4c0-1.9-0.1-3-0.2-3.4c0-0.5,0.1-0.6,0.4-0.4l4.7,2.1
				c0.2,0.1,0.2,0.4,0,0.8l-0.6,0.9l-0.8,7.7C312.3,203.7,315.1,201,317.5,198.1z"/>
			<path class="st29" d="M281.7,243.3c3.6,1.6,5.4,3.3,5.4,5.1c-0.3,1.3-1,2.1-2.3,2.6c-1.1,0.1-1.8-0.3-1.9-1.3
				c-0.1-2.1-0.8-4.1-1.9-6c-0.1-0.1-0.1-0.2,0-0.4C281.3,243.2,281.4,243.2,281.7,243.3z M292.6,242.2l-5.1,22.9
				c-0.5,1.6-0.3,3.3,0.6,4.9c0.2,0.9,0.2,1.6-0.2,2.1c-0.6,0.8-1.7,1.2-3.2,1.5c-0.8,0.1-1.1-0.3-1.1-1.3c0.4-2.3,0.5-3.7,0.4-4.3
				c0-1.2-0.6-2.1-1.7-2.6c-0.1-0.2-0.1-0.4,0-0.6c1.4,0.3,2.2-0.1,2.4-1.1L292,242c0.1-0.1,0.2-0.2,0.4-0.2
				C292.5,241.8,292.6,241.9,292.6,242.2z M286.4,231.1c3.9,1.6,5.8,3.2,5.8,4.7c0,1.4-0.7,2.4-2.1,3c-1.1,0.1-1.8-0.2-1.9-0.9
				c-0.3-2.6-1-4.7-2.3-6.2C285.9,231.4,286,231.2,286.4,231.1z M300.6,238.4c-1.4,0-2.8,0.1-4.1,0.4c-0.4,0-0.6,0-0.8,0l-1.5-1.3
				h6.6l-0.2-7.1l4.9,1.3c0.4,0.1,0.4,0.4,0,0.8l-0.2,0.2c-0.1,0.3-0.3,0.8-0.6,1.7v3l4.5-0.2l-0.2-6.9l4.7,1.5
				c0.4,0,0.4,0.2,0.2,0.6c-0.4,0.4-0.6,1-0.8,1.9v3h1.3l2.6-2.3l2.6,2.6c0.1,0.3,0,0.4-0.4,0.4l-6.2,0.2v6.8l5.8-0.2l2.6-2.8
				l3.2,3.2c0.1,0.3,0,0.4-0.4,0.4l-22.9,0.6l3.6,2.1l0.2,0.2c0,0.1-0.1,0.3-0.4,0.4l-1.1,0.9c-0.9,0.9-1.9,1.8-3,2.8l1.1,0.6l9-0.4
				l1.5-2.1l1.7,1.1c-0.8-1.7-1.4-3.6-1.9-5.4l0.4-0.2c0.6,2.9,4.7,6.1,12.4,9.6c0.1,0.1,0.2,0.3,0.2,0.4c0,0.1-0.1,0.2-0.4,0.2
				c-1.4,0-3.1,0.9-5.3,2.8c-1.3-1.1-2.6-2.7-3.9-4.7l-0.6,0.6v5.4l0.4,0.6c0.1,0.3,0.1,0.4-0.2,0.4c-0.4,0-1,0-1.9,0
				c-2.4-0.1-4.4-0.1-6,0l-5.6,0.2l-0.4,5.3c-0.3,1.8,0.4,2.6,1.9,2.4c4.4,0.1,8.1-0.1,11.3-0.6c1.9,0,3.1-1.2,3.8-3.8
				c0.4-0.4,0.6-0.3,0.8,0.2c-0.3,2,0,3.2,0.8,3.6c1.1,0.6,1.6,1.4,1.5,2.3c-0.1,0.9-0.9,1.5-2.3,1.9c-4.4,0.9-9.3,1.1-14.8,0.6
				c-3.8-0.5-5.7-2.9-5.8-7.3l0.2-9.9v-1.5c-3.3,2.9-6.1,5.3-8.6,7.1c-0.4,0.3-0.4,0.1-0.2-0.4c4.6-4.9,8.4-9.9,11.3-15h-2.4
				c-1.9,0-3.5,0.2-4.9,0.6l-1.7-1.5l8.8-0.2v-6.6H300.6z M301.8,260.3l9.2-0.4v-6.6l-8.8,0.4L301.8,260.3z M309.3,244.8v-6.6
				l-4.5,0.2v6.4H309.3z"/>
			<path class="st29" d="M298,306.3c-0.5,1.3-1.4,2.4-2.6,3.4c-0.5,0.5-0.9,0.3-1.3-0.6c-1.1-2.5-2.2-4.7-3.2-6.8
				c-2.9,6.5-6.6,12.1-11.3,16.9c-0.3,0.1-0.4,0.1-0.4,0c-0.1-0.1-0.1-0.3,0-0.6c4-5.1,7.2-11.7,9.8-19.7c-1.8-2.9-3.9-6-6.4-9.4
				c-0.1-0.4,0-0.5,0.4-0.4c1.9,1.5,4.2,3.6,6.9,6.4c1-3.8,1.9-7.9,2.6-12.4l-10.5,0.6c-0.5,0.1-0.8,0-0.9-0.4
				c0-0.4,0.2-0.7,0.8-0.9l10.5-0.4l2.3-2.6l3.9,2.8c0.2,0.1,0.2,0.3,0,0.6l-1.7,1.7c-1.3,5-2.7,9.6-4.3,13.7c1.7,1.8,3.5,3.8,5.3,6
				C298.3,305.1,298.4,305.8,298,306.3z M307.4,285.5l4.3,1.7c0.4,0.1,0.4,0.4,0,0.8l-0.6,1.3c-0.1,3.4-0.4,6.4-0.9,9.2l3.6,1.9
				c0.1,0.1,0.2,0.3,0.2,0.6l-0.8,1.3l-2.1,11.8c-0.3,1.8,0.3,2.7,1.7,2.8c2.6,0.3,4.9,0.2,6.9-0.2c1.1-0.1,2-1.3,2.6-3.6
				c0.1-0.2,0.3-0.4,0.6-0.4c0.2,0.1,0.4,0.3,0.4,0.6c-0.4,1.5-0.1,2.8,0.8,3.8c1.4,1.7,0.8,3.1-1.7,4.1c-3.1,0.6-6.3,0.7-9.6,0.2
				c-3.1-0.8-4.5-3.1-4.1-6.9l1.1-12.6v-0.6c-0.8,8.1-7.5,15.6-20.3,22.3c-0.3,0.1-0.4,0.1-0.6,0c0-0.3,0.1-0.4,0.2-0.6
				c8-4.9,12.9-9.6,14.8-14.1C306.4,304.3,307.5,296.5,307.4,285.5z M319.9,282.3v18c-0.4,2.5-1.4,4.4-3.2,5.8
				c-0.6,0.6-1.1,0.6-1.3-0.2v-22.5c0.2-1.5-0.5-2.1-2.3-1.9l-9,0.4l-0.2,18.9c-0.3,2.4-1.1,4.3-2.6,5.6c-0.3,0.3-0.5,0.3-0.8,0.2
				c-0.1,0-0.2-0.2-0.2-0.6l0.2-9.9l0.2-12.9l-0.2-4.5l3.9,2.1l9.8-0.4l2.1-2.6l4.7,2.4c0.2,0,0.2,0.1,0,0.4L319.9,282.3z"/>
			<path class="st29" d="M280.2,349.4c-0.3,0.1-0.4,0.1-0.6,0c-0.1-0.1-0.1-0.3,0.2-0.6c6.4-5.9,11.9-13.9,16.7-24l4.7,2.8
				c0.2,0,0.2,0.2,0,0.6l-0.9,0.8c-0.8,1.1-1.6,2.3-2.4,3.4l7.1-0.4l1.7-1.7l4.5,2.6c0.1,0.4,0.1,0.6-0.2,0.8l-1.5,0.8
				c-2.5,1.9-5.2,4.1-8.1,6.6l9.8-0.2l2.1-2.3l4.3,2.6c0.2,0,0.2,0.2,0,0.6l-0.9,1.3l-0.2,8.6l0.4,5.8c-0.1,2.4-1.1,4.4-2.8,6
				c-0.8,0.6-1.3,0.6-1.7-0.2c-0.4-1.1-0.9-2.1-1.7-2.8l-16.7,0.4c-0.6,1.6-1.7,2.9-3.2,3.9c-0.5,0.3-0.8,0.1-0.9-0.4l0.2-8.8v-9.9
				l-0.2-4.5C286.8,344,283.6,346.8,280.2,349.4z M289.8,369.5c-2.4,0-4.2,0.2-5.4,0.6l-1.1-1.7l33.8-0.6l3-2.8l3.8,3.2
				c0.2,0.1,0.2,0.2,0,0.4L289.8,369.5z M291.1,339.8l2.8,1.3h6.8l4.3-8.3l-7.7,0.2C295.3,335.5,293.2,337.7,291.1,339.8z
				 M293.7,342.3v7.5h6.8v-7.7L293.7,342.3z M293.7,350.7l0.2,9.2l6.8-0.2l-0.2-9H293.7z M309.8,349.6c0.4,0,0.6,0.1,0.6,0.4
				c0,0.3-0.2,0.4-0.6,0.6h-5.1l-0.2,9.2l6.8-0.2v-17.6l-6.6,0.2v7.5H309.8z"/>
		</g>
	</g>
</g>
</svg>
